<?xml version="1.0" encoding="UTF-8" standalone="no"?>
<!-- Created with Inkscape (http://www.inkscape.org/) -->

<svg
   xmlns:dc="http://purl.org/dc/elements/1.1/"
   xmlns:cc="http://creativecommons.org/ns#"
   xmlns:rdf="http://www.w3.org/1999/02/22-rdf-syntax-ns#"
   xmlns:svg="http://www.w3.org/2000/svg"
   xmlns="http://www.w3.org/2000/svg"
   xmlns:sodipodi="http://sodipodi.sourceforge.net/DTD/sodipodi-0.dtd"
   xmlns:inkscape="http://www.inkscape.org/namespaces/inkscape"
   width="64px"
   height="64px"
   id="svg2985"
   version="1.1"
   inkscape:version="0.48.3.1 r9886"
   sodipodi:docname="lens-icon2.svg">
  <defs
     id="defs2987" />
  <sodipodi:namedview
     id="base"
     pagecolor="#ffffff"
     bordercolor="#666666"
     borderopacity="1.0"
     inkscape:pageopacity="0.0"
     inkscape:pageshadow="2"
     inkscape:zoom="7.7781746"
     inkscape:cx="23.816939"
     inkscape:cy="31.339551"
     inkscape:current-layer="svg2985"
     showgrid="true"
     inkscape:document-units="px"
     inkscape:grid-bbox="true"
     inkscape:window-width="1301"
     inkscape:window-height="744"
     inkscape:window-x="65"
     inkscape:window-y="24"
     inkscape:window-maximized="1" />
  <metadata
     id="metadata2990">
    <rdf:RDF>
      <cc:Work
         rdf:about="">
        <dc:format>image/svg+xml</dc:format>
        <dc:type
           rdf:resource="http://purl.org/dc/dcmitype/StillImage" />
        <dc:title />
      </cc:Work>
    </rdf:RDF>
  </metadata>
  <g
     id="layer1"
     inkscape:label="Layer 1"
     inkscape:groupmode="layer">
    <rect
       style="fill:none;fill-opacity:1;stroke:none"
       id="rect2993"
       width="26"
       height="64.545456"
       x="0.18181819"
       y="0" />
    <rect
       style="fill:none;stroke:none"
       id="rect3763"
       width="13.763461"
       height="14.036006"
       x="3.090909"
       y="4.909091" />
    <rect
       style="fill:none;stroke:none"
       id="rect3765"
       width="4.909091"
       height="0.54545456"
       x="5.4545455"
       y="7.4545455" />
    <rect
       style="fill:none;stroke:none;fill-opacity:1"
       id="rect3767"
       width="14.727272"
       height="14.181818"
       x="1.8181819"
       y="3.6363637"
       rx="6.909091"
       ry="6.909091" />
    <rect
       style="fill:none;stroke:#000000;stroke-opacity:1"
       id="rect3771"
       width="17.282799"
       height="17.885065"
       x="6.909091"
       y="7.818182"
       rx="0"
       ry="0" />
    <rect
       style="fill:none;stroke:#000000;stroke-opacity:1"
       id="rect3771-5"
       width="17.282799"
       height="17.885065"
       x="6.9949636"
       y="34.875648"
       rx="0"
       ry="0" />
    <path
       style="fill:none;stroke:#000000;stroke-width:1px;stroke-linecap:butt;stroke-linejoin:miter;stroke-opacity:1"
       d="m 30.909091,12.181818 c 27.090909,0 27.454545,0 27.454545,0 l -0.545454,0"
       id="path3791"
       inkscape:connector-curvature="0" />
    <path
       style="fill:none;stroke:#000000;stroke-width:1px;stroke-linecap:butt;stroke-linejoin:miter;stroke-opacity:1"
       d="m 31.181818,16.363636 c 27.090909,0 27.454545,0 27.454545,0 l -0.545454,0"
       id="path3791-6"
       inkscape:connector-curvature="0" />
    <path
       style="fill:none;stroke:#000000;stroke-width:1px;stroke-linecap:butt;stroke-linejoin:miter;stroke-opacity:1"
       d="m 31.181818,20.363636 c 27.090909,0 27.454545,0 27.454545,0 l -0.545454,0"
       id="path3791-6-9"
       inkscape:connector-curvature="0" />
    <path
       style="fill:none;stroke:#000000;stroke-width:1px;stroke-linecap:butt;stroke-linejoin:miter;stroke-opacity:1"
       d="m 31.227273,39.727272 c 27.090909,0 27.454545,0 27.454545,0 l -0.545454,0"
       id="path3791-1"
       inkscape:connector-curvature="0" />
    <path
       style="fill:none;stroke:#000000;stroke-width:1px;stroke-linecap:butt;stroke-linejoin:miter;stroke-opacity:1"
       d="m 31.5,43.90909 c 27.090909,0 27.454545,0 27.454545,0 l -0.545454,0"
       id="path3791-6-3"
       inkscape:connector-curvature="0" />
    <path
       style="fill:none;stroke:#000000;stroke-width:1px;stroke-linecap:butt;stroke-linejoin:miter;stroke-opacity:1"
       d="m 31.5,47.90909 c 27.090909,0 27.454545,0 27.454545,0 l -0.545454,0"
       id="path3791-6-9-2"
       inkscape:connector-curvature="0" />
    <path
       style="fill:#ffffff;stroke:#000000;stroke-width:0.18181818999999999;stroke-opacity:1;fill-opacity:1"
       d="m 7.5636364,16.690909 0,-8.3636363 7.9999996,0 8,0 0,8.3636363 0,8.363636 -8,0 -7.9999996,0 0,-8.363636 z"
       id="path3764"
       inkscape:connector-curvature="0" />
    <path
       style="fill:#ffffff;fill-opacity:1;stroke:#000000;stroke-width:0.18181818999999999;stroke-opacity:1"
       d="m 7.5636364,43.781818 0,-8.363636 8.0909086,0 8.09091,0 0,8.363636 0,8.363637 -8.09091,0 -8.0909086,0 0,-8.363637 z"
       id="path3766"
       inkscape:connector-curvature="0" />
  </g>
</svg>
