<?xml version="1.0" encoding="UTF-8" standalone="no"?>
<!-- Created with Inkscape (http://www.inkscape.org/) -->

<svg
   xmlns:osb="http://www.openswatchbook.org/uri/2009/osb"
   xmlns:dc="http://purl.org/dc/elements/1.1/"
   xmlns:cc="http://creativecommons.org/ns#"
   xmlns:rdf="http://www.w3.org/1999/02/22-rdf-syntax-ns#"
   xmlns:svg="http://www.w3.org/2000/svg"
   xmlns="http://www.w3.org/2000/svg"
   xmlns:sodipodi="http://sodipodi.sourceforge.net/DTD/sodipodi-0.dtd"
   xmlns:inkscape="http://www.inkscape.org/namespaces/inkscape"
   width="64px"
   height="64px"
   id="svg2985"
   version="1.1"
   inkscape:version="0.48.2 r9819"
   sodipodi:docname="tow3.svg">
  <defs
     id="defs2987">
    <linearGradient
       id="linearGradient5239"
       osb:paint="solid">
      <stop
         style="stop-color:#000000;stop-opacity:1;"
         offset="0"
         id="stop5241" />
    </linearGradient>
  </defs>
  <sodipodi:namedview
     id="base"
     pagecolor="#ffffff"
     bordercolor="#666666"
     borderopacity="1.0"
     inkscape:pageopacity="0.0"
     inkscape:pageshadow="2"
     inkscape:zoom="5.5"
     inkscape:cx="0.54545455"
     inkscape:cy="32"
     inkscape:current-layer="layer1"
     showgrid="true"
     inkscape:document-units="px"
     inkscape:grid-bbox="true"
     inkscape:window-width="1366"
     inkscape:window-height="714"
     inkscape:window-x="-2"
     inkscape:window-y="-3"
     inkscape:window-maximized="1" />
  <metadata
     id="metadata2990">
    <rdf:RDF>
      <cc:Work
         rdf:about="">
        <dc:format>image/svg+xml</dc:format>
        <dc:type
           rdf:resource="http://purl.org/dc/dcmitype/StillImage" />
        <dc:title></dc:title>
      </cc:Work>
    </rdf:RDF>
  </metadata>
  <g
     id="layer1"
     inkscape:label="Layer 1"
     inkscape:groupmode="layer">
    <path
       sodipodi:type="arc"
       style="fill:none"
       id="path2993"
       sodipodi:cx="26.727272"
       sodipodi:cy="24.09091"
       sodipodi:rx="9.454545"
       sodipodi:ry="4.090909"
       d="M 36.181817,24.09091 A 9.454545,4.090909 0 1 1 24.92836,20.074734 l 1.798912,4.016176 z"
       sodipodi:start="0"
       sodipodi:end="4.5209523" />
    <path
       sodipodi:type="arc"
       style="fill:none"
       id="path2995"
       sodipodi:cx="19.545454"
       sodipodi:cy="20.636364"
       sodipodi:rx="2.6363637"
       sodipodi:ry="8.090909"
       d="m 22.181818,20.636364 a 2.6363637,8.090909 0 1 1 -3.137984,-7.943103 l 0.50162,7.943103 z"
       sodipodi:start="0"
       sodipodi:end="4.5209523" />
    <path
       sodipodi:type="arc"
       style="fill:none"
       id="path2997"
       sodipodi:cx="23.818182"
       sodipodi:cy="18.545454"
       sodipodi:rx="11.636364"
       sodipodi:ry="0.72727275"
       d="m 25.89346,19.261067 a 11.636364,0.72727275 0 0 1 -4.289323,-1.4296 l 2.214045,0.713987 z"
       sodipodi:start="1.3914929"
       sodipodi:end="4.5209523" />
    <path
       sodipodi:type="arc"
       style="fill:none"
       id="path3001"
       sodipodi:cx="34.18182"
       sodipodi:cy="34.18182"
       sodipodi:rx="20.90909"
       sodipodi:ry="21.09091"
       d="M 37.910835,54.934604 A 20.90909,21.09091 0 1 1 34.18182,13.09091"
       sodipodi:start="1.3914929"
       sodipodi:end="4.712389"
       sodipodi:open="true" />
    <path
       sodipodi:type="arc"
       style="fill:none"
       id="path3003"
       sodipodi:cx="35.727272"
       sodipodi:cy="36.636364"
       sodipodi:rx="23.545454"
       sodipodi:ry="23.545454"
       d="M 39.926467,59.804341 A 23.545454,23.545454 0 0 1 12.573722,40.91439"
       sodipodi:start="1.3914929"
       sodipodi:end="2.9588856"
       sodipodi:open="true" />
    <path
       sodipodi:type="arc"
       style="fill:none"
       id="path3005"
       sodipodi:cx="34"
       sodipodi:cy="33.272728"
       sodipodi:rx="28.727272"
       sodipodi:ry="28.727272"
       d="m 62.727272,33.272728 a 28.727272,28.727272 0 1 1 -57.454544,0 28.727272,28.727272 0 1 1 57.454544,0 z" />
    <path
       sodipodi:type="arc"
       style="fill:none"
       id="path3007"
       sodipodi:cx="32.81818"
       sodipodi:cy="23.636364"
       sodipodi:rx="21.545454"
       sodipodi:ry="21.545454"
       d="m 54.363634,23.636364 a 21.545454,21.545454 0 1 1 -43.090908,0 21.545454,21.545454 0 1 1 43.090908,0 z" />
    <path
       sodipodi:type="arc"
       style="fill:none"
       id="path3009"
       sodipodi:cx="23.454546"
       sodipodi:cy="10.545455"
       sodipodi:rx="13.636364"
       sodipodi:ry="8.545455"
       d="m 37.09091,10.545455 a 13.636364,8.545455 0 1 1 -27.272728,0 13.636364,8.545455 0 1 1 27.272728,0 z" />
    <path
       sodipodi:type="arc"
       style="fill:none"
       id="path3011"
       sodipodi:cx="31.363636"
       sodipodi:cy="33.545456"
       sodipodi:rx="28.454546"
       sodipodi:ry="28.454546"
       d="m 59.818182,33.545456 a 28.454546,28.454546 0 1 1 -56.909092,0 28.454546,28.454546 0 1 1 56.909092,0 z" />
    <path
       sodipodi:type="arc"
       style="fill:none;opacity:1;fill-opacity:1;stroke:#000000;stroke-opacity:1"
       id="path3017"
       sodipodi:cx="32"
       sodipodi:cy="32.18182"
       sodipodi:rx="30.727272"
       sodipodi:ry="30.727272"
       d="m 62.727272,32.18182 a 30.727272,30.727272 0 1 1 -61.454544,0 30.727272,30.727272 0 1 1 61.454544,0 z" />
    <path
       style="fill:none;fill-opacity:1;stroke:none;stroke-opacity:1"
       id="path5251"
       d="m 12.281218,16.383408 c 0.260153,-0.01255 0.02044,0.02227 0.276314,-0.09594 0.06188,-0.02859 0.132486,-0.03515 0.194193,-0.06412 0.248499,-0.116654 0.115194,-0.101317 0.349928,-0.24959 0.06503,-0.04108 0.138399,-0.06717 0.207598,-0.100756 0.433715,-0.132539 0.03638,0.02229 0.378299,-0.20434 0.05356,-0.0355 0.230002,-0.114395 0.174342,-0.08228 -3.512529,2.02677 -14.09151239,8.034179 -10.545509,6.066562 11.479669,-6.369875 6.735996,-5.545935 11.05711,-6.275424 0.131732,-0.04295 0.27202,0.01635 0.404161,-0.0101 0.05507,-0.01102 0.09924,-0.05365 0.152272,-0.07215 0.05794,-0.02021 0.122688,-0.01878 0.1789,-0.04339 0.05392,-0.02361 0.0975,-0.06598 0.146257,-0.09897 0.06003,-0.02083 0.120069,-0.04166 0.180104,-0.06249 0.40956,-0.05178 0.732183,-0.139611 1.037706,-0.428564 3.83119,-1.862429 -0.155498,0.07038 -10.3487812,5.963083 -0.053363,0.03085 0.1176419,-0.0379 0.1735022,-0.06396 0.1899274,-0.08859 0.3154927,-0.244113 0.4771169,-0.373299 0.05786,-0.04259 0.1157205,-0.08519 0.1735807,-0.127782 0.051232,-0.05179 0.096214,-0.110623 0.1536962,-0.155378 0.047132,-0.0367 0.1093855,-0.05035 0.1569485,-0.08648 0.1795923,-0.13644 0.1533073,-0.239351 0.3843471,-0.327116 3.3241176,-2.527217 10.2811676,-6.002595 11.1033566,-6.472756 0.05447,-0.03115 0.127047,-0.0018 0.187202,-0.0196 0.05331,-0.0158 0.0978,-0.05291 0.146698,-0.07937 0.06015,-0.01551 0.120289,-0.03102 0.180434,-0.04653 0.41895,-0.270409 -0.139825,0.07242 0.33542,-0.158154 0.05677,-0.02754 0.100993,-0.07691 0.157463,-0.105056 0.06036,-0.03009 0.134092,-0.0313 0.190445,-0.06837 0.170051,-0.186543 0.0728,-0.112177 0.289296,-0.226254 0.427359,-0.09589 -0.04402,0.03077 0.323169,-0.128929 0.05593,-0.02433 0.124679,-0.01708 0.176011,-0.05002 0.04863,-0.03121 0.06029,-0.104781 0.110298,-0.133721 0.05391,-0.0312 0.237244,-0.0674 0.183333,-0.0362 -3.514744,2.034481 -7.049613,4.033993 -10.57442,6.05099 29.473286,-16.9667013 -0.200644,0.11178 0.307405,-0.166102 0.04377,-0.02394 7.207703,-6.292307 11.462358,-6.299267 0.05164,-0.02417 0.10328,-0.04835 0.154921,-0.07252 0.06033,-0.01469 0.124054,-0.0193 0.180996,-0.04406 0.374018,-0.162662 -0.09377,-0.04952 0.329604,-0.162037 0.06484,-0.01723 0.13738,-0.0084 0.197692,-0.03782 0.05358,-0.02611 0.08706,-0.08144 0.130592,-0.122162 3.306035,-2.6110639 0.318372,-0.240398 -10.366344,5.921802 -0.0658,0.03795 0.144022,-0.05207 0.208097,-0.09286 0.0739,-0.04705 0.12602,-0.124489 0.201946,-0.168188 10.330058,-5.945307 7.136581,-4.374842 11.08797,-6.311065 0.318152,-0.06944 0.56663,-0.28414 0.83978,-0.443153 0.753556,-0.4386805 -0.267337,0.217421 0.439597,-0.2462291 0.280427,-0.1287143 0.57874,-0.2035915 0.858837,-0.3303587 0.383958,-0.1737726 -0.05754,-0.062136 0.397983,-0.148989 0.382284,-0.2742629 0.884031,-0.1606379 1.287816,-0.3399538 0.350013,-0.283408 -0.06367,0.02978 0.332815,-0.201552 0.05674,-0.033105 0.09767,-0.091368 0.157549,-0.1183936 0.06787,-0.030633 0.147711,-0.024945 0.217502,-0.050896 0.06939,-0.025803 0.131141,-0.06875 0.196712,-0.1031245 0.07447,-0.025463 0.148951,-0.050925 0.223426,-0.076388 0.06466,-0.038255 0.124052,-0.087311 0.193987,-0.1147656 0.0768,-0.03015 0.163273,-0.028637 0.241099,-0.056036 0.310963,-0.1094719 0.582227,-0.283065 0.903731,-0.3599266 0.355688,-0.021295 0.707957,-0.073564 1.042549,-0.1999091 0.557493,-0.2105151 -0.167682,-0.020926 0.443908,-0.1629578 0.503784,-0.078506 1.021981,-0.098643 1.532139,-0.084268 0.08191,5.223e-4 0.164366,0.0111 0.245717,0.00157 0.07447,-0.00873 0.144138,-0.042298 0.217871,-0.055892 0.174793,-0.032226 0.356381,-0.022148 0.529606,-0.061951 0.164934,-0.037897 0.320269,-0.1100596 0.483229,-0.1556989 0.239025,-0.089147 0.496906,-0.042759 0.742376,-0.082191 0.07671,-0.012323 0.148603,-0.046484 0.224843,-0.061467 0.04966,-0.00976 0.496851,-0.062533 0.540257,-0.067751 0.39113,-0.076523 0.776011,0.1060051 1.165043,0.094542 0.162843,-0.0048 0.321252,-0.055495 0.483126,-0.073862 0.513605,0.082251 1.032572,0.098596 1.551208,0.115122 0.237323,-0.022406 0.485305,0.030123 0.72181,0.00343 0.0765,-0.00863 0.148819,-0.039796 0.224124,-0.055814 0.170828,-0.036337 0.337537,-0.05815 0.51017,-0.083642 0.493545,-0.036216 0.987702,-0.05889 1.482454,-0.06775 0.432061,0.015925 0.86459,0.00733 1.296813,0.00361 0.261625,0.022357 0.540263,-0.03688 0.800098,0.00663 0.171573,0.02873 0.33602,0.091448 0.506794,0.1246041 0.421094,0.068544 0.848321,0.066021 1.273485,0.060435 0.477385,-0.031285 0.751591,-0.010562 1.15228,0.2723162 0.39631,0.3709792 0.572674,0.8555975 0.645692,1.3794691 0.01908,0.3158589 0.07026,0.6702406 -0.01741,0.9820452 -0.03559,0.1265827 -0.112677,0.2376237 -0.168238,0.3567999 -0.239104,0.379937 -0.455956,0.768493 -0.73024,1.126733 -0.28126,0.338691 -0.582331,0.650147 -0.871449,0.979624 -0.07378,0.223474 -0.252708,0.316073 -0.408887,0.464301 -0.05582,0.05298 -0.09251,0.123633 -0.146709,0.178269 -0.460508,0.464219 0.211208,-0.306565 -0.30834,0.308423 -0.379198,0.324737 -0.702317,0.727361 -1.107098,1.017002 -0.376201,0.426066 -0.854573,0.726048 -1.299753,1.069698 -3.776388,2.357886 -7.605199,4.491258 -11.540693,6.724485 -3.407044,1.933353 13.357728,-8.164361 10.175346,-5.880013 -0.371882,0.249587 -0.726652,0.52486 -1.108229,0.759522 -0.295809,0.117504 -0.502854,0.356066 -0.75753,0.533163 -0.149897,0.104236 -0.310186,0.192711 -0.463399,0.292008 -4.692319,-4.316501 -7.074518,5.67643 -11.362694,6.389585 -0.310854,0.0517 -0.344225,0.04776 -0.565121,0.273301 -0.224722,0.142768 -0.484185,0.154266 -0.742626,0.1531 -0.06558,-2.96e-4 -0.132348,-0.01767 -0.196686,-0.005 -0.05341,0.01056 -0.0975,0.0485 -0.146247,0.07275 -0.05791,0.01458 -0.117404,0.02391 -0.173736,0.04374 -0.33711,0.118646 0.01705,0.04505 -0.373503,0.130462 -0.0738,0.01614 -0.151319,0.01619 -0.223157,0.03957 -0.06629,0.02157 -0.124599,0.06258 -0.186898,0.09387 -0.06911,0.02174 -0.138215,0.04349 -0.207323,0.06523 -0.243527,0.187783 -0.520404,0.228471 -0.817509,0.235305 -0.07917,0.0018 -0.163214,-0.02084 -0.237488,0.0066 -0.06563,0.02428 -0.104681,0.09288 -0.157021,0.139316 -0.390433,0.197126 -0.813374,0.322552 -1.181128,0.564873 -0.0743,0.03157 -0.151465,0.05709 -0.222896,0.0947 -0.06901,0.03633 -0.125313,0.09548 -0.19694,0.126341 -0.32248,0.138961 -0.708031,0.127633 -1.050422,0.148288 -0.07644,0.02514 -0.151896,0.05351 -0.229324,0.07542 -0.07764,0.02197 -0.159854,0.02794 -0.23546,0.05611 -0.248415,0.09257 -0.148817,0.103975 -0.366044,0.242162 -0.148658,0.09457 -0.244537,0.111155 -0.410666,0.161409 -0.420641,0.0722 -0.028,-0.01771 -0.388364,0.126076 -0.06236,0.02488 -0.13552,0.0225 -0.193277,0.05674 -0.05339,0.03165 -0.07939,0.09697 -0.128965,0.134309 -0.114838,0.0865 -0.193621,0.08774 -0.329526,0.11708 -0.123563,0.164659 -0.339532,0.09314 -0.494094,0.164984 -0.05023,0.02335 -0.07177,0.08629 -0.117589,0.117414 -0.425728,0.289209 0.11571,-0.173247 -0.264793,0.167636 -0.465878,0.165246 0.133368,-0.06517 -0.296896,0.15835 -0.05527,0.02871 -0.120937,0.0331 -0.176593,0.06106 -0.05454,0.0274 -0.203955,0.133964 -0.15104,0.103535 3.504335,-2.015186 13.881395,-8.282194 10.505792,-6.058087 -3.485874,2.296761 -7.224783,4.184284 -10.837174,6.276427 3.493342,-2.020795 6.988999,-4.037592 10.480026,-6.062383 0.06273,-0.03638 -0.131989,0.06061 -0.194746,0.09693 -3.615065,2.092541 -7.224266,4.1952 -10.838342,6.289449 -0.210574,0.122021 -0.432744,0.191601 -0.643405,0.313807 3.481714,-1.999582 13.866792,-8.099452 10.445141,-5.998746 -3.614194,2.080918 -7.228388,4.161836 -10.842583,6.242753 -0.07479,0.02235 -0.152254,0.03719 -0.224377,0.06705 -0.206013,0.0853 -0.324928,0.221511 -0.548338,0.322647 -0.280192,-0.03073 -0.373373,0.144648 -0.574249,0.279859 -0.05753,0.03872 -0.246804,0.126345 -0.186738,0.09169 3.498243,-2.018158 14.021967,-8.021864 10.501665,-6.042436 -3.638295,2.045774 -7.237105,4.160988 -10.855657,6.241483 -0.52551,0.04068 0.0227,-0.03834 -0.410279,0.126937 -0.0695,0.02653 -0.150961,0.01212 -0.219291,0.04155 -0.06269,0.027 -0.101537,0.09463 -0.16348,0.123292 -0.450575,0.2085 0.0051,-0.128733 -0.369289,0.180221 -0.06985,0.01763 -0.139024,0.0382 -0.209551,0.0529 -0.07418,0.01545 -0.151854,0.01496 -0.224205,0.03747 -0.220873,0.06872 -0.336224,0.238375 -0.515007,0.364764 -0.06094,0.04308 -0.131828,0.06997 -0.197742,0.104958 -0.06885,0.03328 -0.272759,0.138095 -0.206541,0.09985 3.468547,-2.003412 6.945341,-3.992523 10.414054,-5.995648 0.07382,-0.04263 -0.15512,0.07134 -0.228971,0.113929 -3.614605,2.084341 -7.212703,4.197363 -10.835973,6.266606 -0.07817,0.04464 -0.446995,0.109726 -0.533895,0.126759 -0.07362,0.03124 -0.153762,0.05019 -0.220859,0.09371 -0.06299,0.04085 -0.103238,0.11001 -0.1631019,0.155313 -0.054783,0.04146 -0.1189578,0.06877 -0.1784367,0.103151 3.5080336,-2.01607 7.0203806,-4.024655 10.5241016,-6.048211 0.108545,-0.06269 -0.233541,0.09171 -0.353163,0.129162 -0.07201,0.09851 -0.225724,0.09819 -0.303746,0.188178 -0.05185,0.0598 -0.06553,0.145332 -0.112218,0.209242 -0.102021,0.139659 -0.271328,0.268721 -0.408047,0.372907 -0.04273,0.04893 -0.08356,0.09959 -0.128201,0.146787 -0.24575,0.259793 -0.34346,0.568779 -0.568611,0.82881 -0.07111,0.165546 -0.253833,0.234208 -0.360428,0.365378 -0.113254,0.139363 -0.20463,0.322223 -0.27799,0.484243 -0.19283,0.223071 -0.242042,0.524642 -0.377478,0.772992 -0.01232,0.272294 0.06337,0.540379 0.08033,0.81205 0.04059,0.184837 0.05321,0.144838 0.26567,0.131451 0.29357,-0.02955 0.588315,-0.04317 0.883062,-0.05395 0.360722,-0.01176 0.721655,-0.01402 1.082536,-0.01564 0.364478,-0.0011 0.728959,-8.9e-4 1.093438,-8.07e-4 0.06065,1.6e-5 0.123165,0.01498 0.181946,4.7e-5 0.05148,-0.01308 0.08855,-0.05971 0.137154,-0.08114 0.223807,-0.09864 0.486976,-0.09987 0.726335,-0.111228 0.2095,-0.139473 0.459582,-0.166659 0.704901,-0.181681 0.06548,-0.004 0.133048,0.0087 0.196669,-0.0073 0.05501,-0.01383 0.100141,-0.05331 0.150212,-0.07997 0.475103,-0.08415 0.960668,-0.06633 1.440973,-0.05337 0.27138,0.03831 0.513732,-0.07118 0.774111,-0.121968 0.07958,-0.01552 0.16249,-0.0163 0.239782,-0.04077 0.136472,-0.04322 0.260901,-0.119133 0.396569,-0.16481 0.130635,-0.06618 0.282335,-0.02994 0.417217,-0.07134 0.05869,-0.01801 0.105366,-0.06397 0.16207,-0.08751 0.210047,-0.08719 0.326821,-0.05811 0.534764,-0.181722 0.114306,-0.07685 0.256412,-0.04895 0.37884,-0.09268 0.05693,-0.02034 0.101156,-0.06735 0.156519,-0.09163 0.212719,-0.09332 0.321488,-0.0569 0.541228,-0.183143 0.435542,-0.135101 -0.05045,0.03541 0.340883,-0.16273 0.05908,-0.02992 0.127821,-0.03762 0.186704,-0.06793 0.05712,-0.0294 0.09899,-0.08539 0.158451,-0.109734 0.05508,-0.02255 0.400526,-0.0728 0.451811,-0.08081 0.06632,-0.03024 0.135793,-0.05435 0.198967,-0.09071 0.285884,-0.164539 0.06655,-0.10443 0.387691,-0.217992 0.210616,-0.07448 0.431166,-0.09239 0.644366,-0.159379 0.2976,-0.0458 0.55746,-0.202979 0.822259,-0.332659 0.444911,-0.217888 -0.02009,0.07152 0.380481,-0.193659 -0.19532,0.205149 0.853678,-0.441511 0.588909,-0.290089 -3.479348,1.989847 -13.950398,7.899947 -10.43082,5.982156 3.740606,-2.038227 7.357308,-4.298223 11.093789,-6.344002 0.579624,-0.298749 1.165909,-0.584421 1.750027,-0.874255 0.638069,-0.31249 1.300348,-0.57351 1.914838,-0.931651 3.451969,-2.527853 0.159101,-0.10406 -10.143231,5.834206 -0.0678,0.03908 0.126817,-0.09188 0.192741,-0.134053 0.1866,-0.119366 0.363973,-0.246915 0.556463,-0.356639 3.613908,-2.085938 7.227816,-4.171876 10.841724,-6.257814 0.160554,-0.03744 0.330588,-0.0027 0.491442,-0.03591 0.197588,-0.04082 0.390895,-0.198368 0.587631,-0.278116 0.459938,-0.310789 -0.117142,0.06134 0.379442,-0.201666 0.06144,-0.03254 0.2332,-0.151209 0.172858,-0.116687 -3.498549,2.001556 -13.83652,8.261565 -10.487968,6.01807 6.086097,-4.077622 7.136694,-4.552784 11.044835,-6.348495 0.263124,-0.216183 0.601388,-0.285692 0.906656,-0.414552 0.894658,-0.37765 -0.453998,0.130941 0.46176,-0.206181 0.150561,-0.0885 0.249652,-0.161787 0.42272,-0.203429 0.08145,-0.0196 0.169817,-0.0035 0.249674,-0.02887 0.06981,-0.02215 0.123563,-0.07945 0.189858,-0.110571 0.159754,-0.07499 0.235556,-0.0797 0.406183,-0.114103 0.194386,-0.06456 0.416167,0.01916 0.610334,-0.02043 0.05424,-0.01106 0.09676,-0.05478 0.148662,-0.07403 0.123573,-0.04584 0.231375,-0.05371 0.360886,-0.07202 0.04909,-0.03015 0.09304,-0.07101 0.147274,-0.09045 0.06365,-0.02282 0.135896,-0.01248 0.19999,-0.03403 0.06469,-0.02175 0.117066,-0.07249 0.181726,-0.09434 0.07546,-0.02549 0.157491,-0.02566 0.234429,-0.04626 0.08109,-0.02172 0.159103,-0.05364 0.238655,-0.08046 0.08966,-0.02357 0.179313,-0.04715 0.26897,-0.07072 0.490357,-0.07527 0.896988,-0.367716 1.374908,-0.481301 0.206751,-0.03505 0.433399,-0.06707 0.632089,-0.1377 0.37297,-0.132581 0.01299,-0.05605 0.363971,-0.232807 0.07156,-0.03604 0.153346,-0.0465 0.230019,-0.06975 0.0706,-0.03833 0.143826,-0.07217 0.211794,-0.114985 0.269949,-0.170064 0.122545,-0.131851 0.424969,-0.252288 0.220722,-0.0879 0.457488,-0.117045 0.683955,-0.186999 0.150648,-0.0649 0.319679,-0.04341 0.474085,-0.08805 0.825869,-0.238786 -0.44569,0.05176 0.409167,-0.152092 0.333148,-0.07944 0.10614,0.01955 0.390708,-0.133103 0.449739,-0.13609 0.937849,-0.0861 1.404186,-0.0927 0.07957,-9.24e-4 0.16035,0.01105 0.238718,-0.0028 0.134214,-0.02368 0.256046,-0.09627 0.389238,-0.12515 0.201154,-0.04362 0.404395,-0.05633 0.609187,-0.06784 0.380918,-0.01105 0.762059,-0.0016 1.143021,0.0026 0.364414,0.0039 0.72885,0.0047 1.093282,0.0052 0.428182,0.01064 0.857995,0.228076 1.188144,0.493949 0.384799,0.348728 0.595139,0.807574 0.722648,1.301128 0.105784,0.487383 0.104198,0.995701 -0.03586,1.474846 -0.21224,0.44296 -0.592376,0.770105 -0.940034,1.105855 -2.934238,3.54561 -1.478539,1.128233 -11.166339,6.668923 -0.185725,0.106221 -0.560168,0.154899 -0.767692,0.160227 -0.365928,0.101977 -0.75502,0.04847 -1.125387,0.100562 -0.223761,0.03147 -0.300114,0.08893 -0.496765,0.186957 -0.08087,0.03038 -0.164974,0.05326 -0.242618,0.09113 -0.374728,0.182793 -0.03127,0.08271 -0.424491,0.220422 -0.225987,0.07915 -0.403417,0.07663 -0.621036,0.186853 -0.179411,0.08721 -0.510061,0.0057 -0.68039,0.07965 -0.06406,0.02782 -0.09309,0.105517 -0.149235,0.147055 -0.16559,0.122516 -0.22054,0.109347 -0.421371,0.149242 -0.08145,0.01244 -0.165075,0.01484 -0.244343,0.03732 -0.934871,0.265054 0.539704,-0.07774 -0.42869,0.155484 -0.282349,0.068 -0.355566,9.3e-4 -0.601017,0.176138 -0.402927,0.102139 -0.841889,0.126994 -1.2191,0.305922 -0.344715,0.298525 -0.794747,0.32756 -1.230144,0.337296 -0.187567,0.04527 -0.414828,-0.06304 -0.599299,-0.01284 -0.05062,0.01378 -0.08126,0.0672 -0.126841,0.09319 -0.112794,0.06431 -0.166,0.0632 -0.292094,0.08693 -0.349867,0.02426 -0.701224,0.0026 -1.051449,-0.0057 -0.376316,-0.0021 -0.752297,-0.01609 -1.128442,-0.02276 -0.420472,0.167585 -0.884864,0.06468 -1.320676,0.132711 -0.09312,0.01454 -0.181777,0.04989 -0.272666,0.07484 -0.21865,0.146322 -0.472806,0.200837 -0.716093,0.285326 -0.07364,0.02557 -0.141515,0.06703 -0.216417,0.08863 -0.594919,0.171534 0.0698,-0.09171 -0.495899,0.149585 -0.382102,0.08323 -0.77662,0.134095 -1.167614,0.156482 -0.09594,0.0055 -0.193529,-0.01025 -0.288239,0.006 -0.08158,0.01403 -0.155864,0.05584 -0.233795,0.08376 -0.430863,0.114987 -0.843758,0.249355 -1.289468,0.299389 -0.246073,-0.04142 -0.388334,0.102718 -0.592803,0.186319 -0.0747,0.03054 -0.159032,0.03143 -0.234668,0.05958 -0.07669,0.02854 -0.146462,0.073 -0.219693,0.109504 -0.08046,0.02826 -0.160913,0.05653 -0.241369,0.08479 -0.485879,0.09459 -0.915014,0.338492 -1.394074,0.449879 -0.06283,0.03307 -0.12565,0.06614 -0.188475,0.09922 -0.06835,0.02235 -0.139976,0.03645 -0.205052,0.06705 -0.06087,0.02862 -0.109504,0.07918 -0.169707,0.109177 -0.202403,0.100861 -0.360434,0.09323 -0.56813,0.210447 -0.309263,0.265376 0.02492,0.0025 -0.334462,0.212065 -0.188169,0.109716 -0.131892,0.145153 -0.356408,0.197164 -0.4178,0.09679 -0.07089,-0.08198 -0.41318,0.13073 -0.06464,0.02348 -0.127647,0.0521 -0.193931,0.07045 -0.06644,0.01839 -0.138132,0.01616 -0.20302,0.03945 -0.213599,0.07664 -0.115062,0.09663 -0.301412,0.215892 -0.125387,0.08025 -0.240643,0.09613 -0.382093,0.131175 3.519763,-2.012037 7.035419,-4.031277 10.55929,-6.036112 0.06191,-0.03522 -0.112268,0.08804 -0.172179,0.126574 -0.06156,0.03959 -0.130467,0.06701 -0.191537,0.10735 -0.06089,0.04022 -0.110088,0.09733 -0.173368,0.133677 -10.186783,5.850517 -7.195491,4.267366 -11.056101,6.307312 -0.06833,0.02114 -0.13964,0.03435 -0.204987,0.06343 -0.06122,0.02724 -0.111171,0.0759 -0.171877,0.104275 -0.186192,0.08704 -0.417516,0.06157 -0.578402,0.20108 -0.04979,0.04318 -0.07883,0.105636 -0.118249,0.158454 3.497674,-2.025262 6.995347,-4.050524 10.493021,-6.075787 -0.06752,0.03436 -0.138839,0.06212 -0.202576,0.103083 -0.199703,0.128345 -0.379928,0.292994 -0.586579,0.413311 -3.605187,2.09902 -7.217614,4.185578 -10.826421,6.278367 3.475721,-2.010859 6.94788,-4.027886 10.427162,-6.032576 0.117443,-0.06767 -0.226148,0.149776 -0.343441,0.217706 -3.611622,2.091682 -7.193823,4.234876 -10.832537,6.279065 -3.48502,1.957845 13.507906,-8.491738 10.384989,-5.99656 -0.182201,0.05833 -0.317696,0.208653 -0.464274,0.304758 -0.04605,0.03019 -0.103224,0.03885 -0.152634,0.06315 -0.183257,0.09011 -0.143224,0.07541 -0.282879,0.228932 -0.05048,0.04056 -0.104037,0.07758 -0.151449,0.121693 -0.04929,0.04586 -0.08681,0.103725 -0.137913,0.147548 -0.160101,0.137284 -0.369987,0.200686 -0.53395,0.330219 -0.06778,0.05355 -0.123178,0.121136 -0.184767,0.181705 -3.705431,2.364739 -1.251542,0.803305 -11.060952,6.371146 -0.114675,0.06509 -0.360865,0.06067 -0.482638,0.0941 -0.164896,0.04526 -0.225421,0.107991 -0.359429,0.205894 -0.06523,0.02759 -0.137765,0.04203 -0.195698,0.08278 -0.283807,0.199625 0.02143,0.113856 -0.297677,0.242348 -0.209721,0.08445 -0.301597,0.02298 -0.521601,0.139122 -0.39599,0.09796 0.03009,-0.02869 -0.320474,0.14012 -0.0569,0.0274 -0.123271,0.0315 -0.179873,0.05952 -0.05523,0.02734 -0.09733,0.07695 -0.152271,0.104872 -0.059,0.02999 -0.131737,0.03063 -0.186746,0.06743 -0.05266,0.03523 -0.08423,0.09468 -0.126342,0.142021 -0.06386,0.01644 -0.130643,0.02411 -0.191581,0.0493 -0.05964,0.02466 -0.222509,0.130891 -0.166534,0.09876 3.498576,-2.008069 13.92576,-8.147403 10.494354,-6.026596 -3.670558,2.268618 -7.019386,5.700907 -11.287032,6.338731 -0.142056,0.04453 -0.293237,-0.01194 -0.435941,0.01599 -0.05861,0.01147 -0.10734,0.05321 -0.1639284,0.07229 -0.060152,0.02029 -0.1296577,0.01421 -0.1849571,0.04538 -0.05164,0.02911 -0.1747849,0.157418 -0.123146,0.128305 3.5511825,-2.002071 7.0855105,-4.033892 10.6282655,-6.050839 -0.06432,-0.04085 -0.184952,-0.112053 -0.235608,-0.167908 -0.03428,-0.0378 -0.258398,-0.380494 -0.124852,-0.03861 0.135935,0.311444 0.224207,0.651096 0.411699,0.937098 0.134877,0.23092 0.354564,0.14428 0.575041,0.113395 0.139773,-0.212606 0.379195,-0.156253 0.581964,-0.230237 0.05286,-0.01929 0.09423,-0.06153 0.141351,-0.09229 0.0576,-0.01945 0.115194,-0.0389 0.172791,-0.05835 0.192792,-0.04686 0.372389,-0.01868 0.539834,-0.14058 0.04988,-0.03631 0.08461,-0.09144 0.136075,-0.125456 0.680238,-0.44963 -0.318554,0.298908 0.331688,-0.200213 0.253357,-0.09969 0.473696,-0.257915 0.714325,-0.381084 0.498323,-0.255075 -0.09047,0.114716 0.364473,-0.184603 0.210211,-0.05271 0.353438,-0.196063 0.561833,-0.255305 0.06886,-0.01958 0.145715,-0.01254 0.210372,-0.04328 0.183524,-0.161944 0.08252,-0.09839 0.30146,-0.193119 0.389016,-0.06694 -0.01129,0.02542 0.315324,-0.116683 0.05424,-0.0236 0.117318,-0.02269 0.170888,-0.04776 0.221459,-0.103635 0.05396,-0.112902 0.3187,-0.157703 0.07303,-0.01236 0.148046,-0.0053 0.222069,-0.008 0.07683,-0.0038 0.155205,0.0044 0.2305,-0.01132 0.210557,-0.04407 0.181671,-0.09754 0.363595,-0.19669 0.197556,-0.107668 0.417564,-0.140367 0.636055,-0.173653 0.227515,-0.18291 0.521227,-0.126107 0.778556,-0.195336 0.05772,-0.01553 0.103917,-0.06004 0.159648,-0.08164 0.0593,-0.02298 0.122479,-0.03429 0.183718,-0.05143 0.06522,-0.01003 0.131769,-0.01357 0.195651,-0.03008 0.313165,-0.08098 0.03984,-0.06506 0.390859,-0.115568 0.285038,-0.04102 0.430756,-0.01057 0.713794,-0.115149 0.323595,-0.138582 0.681107,-0.04436 1.015572,-0.100655 0.08058,-0.01356 0.155856,-0.04919 0.233785,-0.07378 0.08524,-0.01384 0.17048,-0.02768 0.25572,-0.04152 0.378468,0.0059 0.643559,-0.196882 0.948714,-0.377889 0.148751,-0.08823 0.309795,-0.153874 0.464211,-0.231771 0.269502,-0.103126 0.567113,-0.103327 0.842366,-0.176761 0.211624,-0.05646 0.480227,-0.162253 0.686219,-0.244191 0.418139,-0.241625 0.845379,-0.467986 1.308909,-0.613608 0.06084,-0.04712 0.11726,-0.100586 0.182527,-0.141356 0.182808,-0.114193 0.38504,-0.117043 0.559849,-0.245113 3.208658,-2.350741 -6.905157,3.950331 -10.348242,5.941971 3.593857,-2.349376 7.966185,-4.620074 11.209649,-6.486538 0.20614,-0.118623 0.426752,-0.174939 0.633872,-0.292905 0.238709,-0.159061 0.507483,-0.362037 0.782739,-0.452912 0.402733,-0.132961 0.04699,0.03798 0.398035,-0.149323 3.310889,-2.637413 0.304382,-0.229622 -10.317095,5.920794 -0.06458,0.03739 0.135797,-0.06219 0.201394,-0.09777 0.205538,-0.111473 0.36323,-0.269687 0.550019,-0.408085 3.468398,-2.769301 0.250708,-0.216897 11.042106,-6.454005 0.07822,-0.04521 0.165995,-0.07205 0.245191,-0.115545 0.0793,-0.04355 0.152932,-0.09671 0.229397,-0.145071 -3.4538,1.993777 -13.859094,7.897065 -10.361402,5.981331 3.657663,-2.003354 7.227622,-4.162834 10.841433,-6.24425 0.49887,-0.245784 0.954046,-0.569332 1.461955,-0.794615 0.274372,-0.01347 0.524085,-0.142672 0.794267,-0.17716 0.101856,-0.013 0.208252,0.01284 0.307801,-0.01234 0.118932,-0.03008 0.41318,-0.229988 0.510466,-0.292181 0.354819,-0.201033 0.723526,-0.423049 1.119386,-0.536822 0.408299,-0.0822 0.207964,-0.03308 0.601215,-0.146483 0.29827,-0.0282 0.54298,-0.205067 0.82956,-0.27333 0.09064,-0.02159 0.186227,-0.01826 0.276414,-0.04169 0.202715,-0.05266 0.276976,-0.115162 0.451886,-0.221671 0.08397,-0.02468 0.167196,-0.05208 0.251923,-0.07404 0.262013,-0.0679 0.515993,-0.124823 0.761923,-0.244614 0.505126,-0.246043 -0.01872,-0.05478 0.540916,-0.236033 0.278233,-0.140537 0.541821,-0.285891 0.847386,-0.359093 0.110115,-0.02638 0.226083,-0.02746 0.334081,-0.06148 0.212197,-0.06685 0.407268,-0.179661 0.615005,-0.259291 0.326067,-0.04797 0.613766,-0.205812 0.927828,-0.295388 0.09275,-0.02645 0.189762,-0.03776 0.281,-0.06904 0.302455,-0.139769 0.149114,-0.07966 0.45961,-0.181377 0.414599,-0.108376 0.844725,-0.08983 1.26886,-0.07901 0.203158,-0.0081 0.426489,0.0614 0.6288,0.02501 0.06145,-0.01105 0.113554,-0.05251 0.172656,-0.07264 0.144977,-0.0494 0.238821,-0.05945 0.389411,-0.0855 0.497653,-0.05491 0.991043,0.04605 1.486033,-0.03771 0.545025,-0.03794 1.038079,-0.260356 1.575578,-0.340614 0.07378,-0.0065 0.149701,-6.82e-4 0.221331,-0.01951 0.06093,-0.01601 0.113113,-0.0555 0.16967,-0.08325 0.06209,-0.01829 0.123207,-0.0403 0.186277,-0.05486 0.209996,-0.04849 0.421932,-0.03331 0.635749,-0.03671 0.218639,-0.01304 0.438848,0.0056 0.65741,-0.0057 0.06101,-0.0031 0.122521,-0.03299 0.182181,-0.01986 0.238723,0.05252 0.338624,0.268215 0.480347,0.442543 0.170105,0.329679 0.34874,0.554401 0.350077,0.930924 8.17e-4,0.229861 -0.437071,0.63121 -0.579207,0.788688 -36.07899,20.968032 6.933793,-4.092285 -0.716935,0.417349 -0.167305,0.09862 -0.31458,0.229048 -0.48273,0.326216 -3.610034,2.086116 -7.229351,4.156124 -10.844027,6.234186 -0.500891,0.352022 -1.120175,0.391264 -1.693772,0.551568 -0.617033,0.215632 -1.243203,0.400851 -1.845492,0.656443 -0.532684,0.417373 -1.194243,0.337846 -1.805337,0.4975 -0.431261,0.04288 -0.867013,0.09323 -1.288572,0.195459 -0.102961,0.02497 -0.200881,0.06741 -0.301321,0.101121 -0.105201,0.02302 -0.210401,0.04605 -0.315602,0.06907 -0.606551,0.146356 -1.219642,0.259154 -1.832906,0.379585 -0.325003,0.02135 -0.638463,0.09145 -0.931701,0.235703 -0.0916,0.04506 -0.172424,0.110541 -0.265102,0.153347 -0.152634,0.0705 -0.422332,0.140942 -0.583267,0.18695 -0.241678,0.160975 -0.526766,0.170595 -0.798537,0.237951 -0.275368,0.06825 -0.517749,0.141852 -0.802152,0.173148 -0.407715,0.06006 -0.753638,0.282258 -1.120772,0.444706 -0.205814,0.09107 -0.423366,0.153076 -0.632633,0.235903 -0.667343,0.299793 -1.404034,0.382647 -2.105301,0.576395 -0.117803,0.0294 -0.237763,0.05121 -0.35341,0.08819 -0.105075,0.0336 -0.202422,0.08861 -0.30722,0.123066 -0.285245,0.09379 -0.332195,0.07123 -0.618844,0.146041 -0.2236,0.05836 -0.333041,0.109305 -0.547648,0.194288 -0.626469,0.195101 -1.250112,0.347184 -1.906788,0.390555 -0.591378,0.204509 -1.223289,0.117742 -1.829318,0.224966 -0.722859,0.100766 -1.454165,0.102544 -2.182474,0.118949 -0.335121,0.03915 -0.677538,-0.01112 -1.012408,0.02601 -0.284251,0.03152 -0.562562,0.109596 -0.848996,0.139734 -0.599343,0.06702 -1.203607,0.03005 -1.805291,0.03929 -0.101176,0.0027 -0.203307,-0.0061 -0.303528,0.008 -0.16838,0.02372 -0.326446,0.09813 -0.493922,0.127566 -0.243242,0.04275 -0.496649,0.05265 -0.742598,0.07065 -0.269521,0.06435 -0.608128,-0.03472 -0.872266,0.02412 -0.05613,0.0125 -0.100309,0.05701 -0.153749,0.07825 -0.05619,0.02233 -0.115865,0.0346 -0.173798,0.05191 -0.150799,0.178217 -0.330914,0.145381 -0.528998,0.197495 -0.280905,0.0739 -0.10286,0.08879 -0.363754,0.210477 -0.07307,0.03408 -0.155202,0.04372 -0.232802,0.06559 -3.576827,2.129419 -7.311718,4.219937 9.993856,-5.712434 0.08222,-0.04719 -0.167788,0.0884 -0.249871,0.13583 -10.977977,6.343313 -7.037853,4.513092 -11.076048,6.379271 -0.450196,0.342772 -1.023033,0.415927 -1.521579,0.645645 -0.06523,0.0446 -0.130458,0.0892 -0.195687,0.133801 -0.05934,0.05139 -0.113378,0.109616 -0.17801,0.154159 -0.06432,0.04433 -0.274063,0.150034 -0.206493,0.110831 3.489494,-2.024507 6.97819,-4.050404 10.472372,-6.066809 0.05237,-0.03022 -0.09254,0.07938 -0.145959,0.107695 -0.04494,0.02382 -0.09685,0.03112 -0.14528,0.04669 -0.0022,3.11e-4 -0.24825,0.03339 -0.258114,0.04175 -0.03831,0.03245 -0.03871,0.09312 -0.06513,0.135805 -0.110836,0.17907 -0.233033,0.353216 -0.343571,0.533858 -0.04287,0.05246 -0.08526,0.105318 -0.128619,0.157382 -0.03845,0.04618 -0.08609,0.08567 -0.116793,0.137335 -0.147213,0.247731 -0.08302,0.410924 -0.347706,0.589554 -0.02568,0.110429 -0.147867,0.142557 -0.200616,0.229357 -0.03234,0.05321 -0.03496,0.12048 -0.06436,0.175373 -0.06972,0.130174 -0.179573,0.266223 -0.278293,0.376459 -0.01005,0.194862 -0.155076,0.244216 -0.251808,0.375214 -0.0989,0.133932 -0.183774,0.309279 -0.2501,0.460885 -0.02972,0.0489 -0.06697,0.09397 -0.08917,0.146713 -0.02707,0.06432 -0.03081,0.136798 -0.05735,0.201337 -0.08285,0.201473 -0.217355,0.381509 -0.355966,0.547539 -0.05551,0.286531 -0.285257,0.468386 -0.385529,0.737205 -0.08617,0.246391 -0.09955,0.471448 0.01923,0.71343 0.110707,0.137364 0.275373,0.04375 0.407813,0.08054 0.06245,0.01734 0.115156,0.05949 0.172734,0.08924 0.281283,0.09817 0.587714,0.04929 0.880617,0.04493 0.418183,-0.007 0.836784,-0.01203 1.254986,-0.0034 0.442774,2.73e-4 0.885454,-0.01073 1.328174,-0.01657 0.386926,-0.01129 0.773532,7.2e-5 1.160305,0.0053 0.487119,0.0071 0.974548,0.02081 1.461784,0.02078 0.166709,-0.07172 0.350617,-0.05104 0.522847,-0.09158 0.09009,-0.0212 0.172931,-0.06684 0.262121,-0.09155 0.293752,-0.08139 0.545105,-0.09956 0.833571,-0.214466 0.267594,-0.08406 0.460855,-0.285526 0.686506,-0.43621 0.224131,-0.149669 0.47164,-0.254405 0.696249,-0.405808 -3.451968,1.997101 -13.823022,7.961985 -10.355904,5.991303 3.625647,-2.06079 7.220209,-4.175797 10.831506,-6.261632 3.373753,-1.948633 -6.754154,3.88577 -10.123898,5.841328 -0.157187,0.09122 0.329598,-0.155477 0.483002,-0.252926 0.305776,-0.289484 0.64971,-0.535299 0.970246,-0.805166 0.322126,-0.310927 0.156879,-0.165895 0.494378,-0.436646 0.330995,-0.309629 0.740938,-0.502545 1.117935,-0.742365 0.07299,-0.04643 0.470985,-0.346251 0.545359,-0.401909 0.468332,-0.386113 0.948725,-0.757536 1.419525,-1.140898 0.06825,-0.05765 0.136495,-0.115309 0.204743,-0.172963 0.05823,-0.06136 0.110743,-0.128693 0.174684,-0.18407 0.06367,-0.05514 0.142066,-0.09141 0.206301,-0.145883 0.197882,-0.167812 0.348463,-0.352876 0.566565,-0.499554 0.394879,-0.305389 0.751521,-0.662763 1.17642,-0.9264 9.577301,9.392193 7.265954,-4.741242 11.221111,-6.475692 0.07514,-0.03295 0.157042,-0.04918 0.231473,-0.08371 0.670146,-0.310833 -0.270302,0.06335 0.433267,-0.20633 0.280756,-0.229496 0.6309,-0.215438 0.963868,-0.298112 0.201123,-0.04994 0.398018,-0.115798 0.598611,-0.167827 0.526338,-0.182935 1.07553,-0.27855 1.572667,-0.536501 0.07492,0.02797 0.184097,0.01506 0.224773,0.08391 0.281643,0.476789 1.15572,1.170474 0.711554,1.501181 -3.671186,2.056415 -7.342373,4.11283 -11.013559,6.169245 -0.09685,-0.0014 -0.193968,-0.01136 -0.290556,-0.0041 -0.115011,0.0087 -0.226805,0.04966 -0.342123,0.0517 -0.17129,0.003 -0.341765,-0.02436 -0.512648,-0.03654 -0.216671,0.02193 -0.434775,0.03263 -0.650013,0.0658 -0.584749,0.0901 -0.974252,0.211117 -1.552627,0.353914 -0.895151,0.221007 -1.796057,0.413653 -2.691345,0.634253 -1.46311,0.416594 -2.913346,0.879639 -4.343709,1.397773 -1.429774,0.571103 0.426192,-0.184981 -0.862077,0.383878 -0.48018,0.212032 -0.272439,0.06496 -0.709468,0.307068 -0.527828,0.292411 -0.02642,0.07846 -0.577103,0.289447 -0.585723,0.254761 -1.12809,0.595219 -1.717216,0.846051 -3.615946,2.021231 -7.836572,4.486329 9.591291,-5.526529 0.08827,-0.05071 -0.170578,0.111341 -0.258717,0.162281 -10.833126,6.261079 -6.974673,4.649977 -11.112389,6.361711 -3.799559,2.092411 1.416411,-0.777951 10.148181,-5.84543 0.05412,-0.03141 -0.124627,0.024 -0.180106,0.05295 -0.05219,0.02723 -0.08702,0.08014 -0.136398,0.112187 -0.225863,0.146569 -0.05362,-0.045 -0.227086,0.191498 -0.389932,0.241985 -0.41731,-0.04063 -0.568392,-0.362659 -0.113048,-0.292545 0.163238,-0.221224 0.361747,-0.211749 0.485198,0.02316 0.07033,-0.0029 0.618049,0.03571 0.882724,0.07334 1.757515,-0.02386 2.635708,-0.09764 0.778445,-0.04608 1.563465,-0.124857 2.322622,-0.308274 0.54633,-0.112091 0.942242,-0.529108 1.431391,-0.759167 0.103815,-0.04883 0.215214,-0.07956 0.322821,-0.11934 0.636861,-0.318731 -0.04673,0.0032 0.622895,-0.250405 0.09961,-0.03773 0.190693,-0.09616 0.290951,-0.132126 0.314375,-0.11279 0.646596,-0.134361 0.975933,-0.16108 0.316002,0.02148 0.582398,-0.106625 0.869497,-0.207747 0.277876,-0.09787 0.516562,-0.179915 0.773543,-0.327602 0.606948,-0.313962 1.277326,-0.446234 1.911712,-0.690804 0.609656,-0.294681 1.157092,-0.691165 1.771919,-0.975522 0.60788,-0.330889 1.27491,-0.526082 1.898152,-0.817293 0.452786,-0.226761 0.848005,-0.556394 1.303661,-0.778203 0.485937,-0.196827 0.250405,-0.09002 0.70725,-0.318961 3.882927,-2.104566 9.242706,-5.279295 -8.621641,5.01133 3.762613,-2.205347 5.682111,-3.331332 11.157542,-6.453622 0.168084,-0.09585 0.72398,-0.238526 0.892401,-0.301973 0.128077,-0.04825 0.751623,-0.341916 0.875343,-0.399614 0.389554,-0.199809 0.764301,-0.421761 1.135726,-0.652508 0.109771,-0.06819 0.443266,-0.265876 0.331312,-0.201329 -6.339521,3.655021 -13.677242,7.905113 -9.908969,5.722562 0.491988,-0.34482 1.019944,-0.639809 1.475859,-1.032318 0.473866,-0.323865 0.838278,-0.77697 1.315187,-1.091265 0.31247,-0.197005 0.656654,-0.349813 0.952371,-0.573538 0.249542,-0.217819 0.121696,-0.115423 0.383015,-0.307839 0.287733,-0.136765 0.475643,-0.394834 0.713864,-0.590353 0.0994,-0.08158 0.25554,-0.15575 0.368022,-0.214559 0.05631,-0.04254 0.104591,-0.09861 0.168925,-0.127611 0.06013,-0.02711 0.134257,-0.0094 0.194522,-0.03625 0.058,-0.0258 0.09684,-0.08268 0.150194,-0.117076 0.178815,-0.115279 0.268681,-0.172092 0.420286,-0.332259 0.311913,-0.48803 -0.06933,0.06906 0.245537,-0.290965 0.04096,-0.04683 0.06015,-0.110417 0.102581,-0.155917 0.03272,-0.03509 0.08596,-0.04634 0.118717,-0.0814 0.224216,-0.240017 -0.04411,-0.06732 0.201836,-0.204198 0.100941,-0.140905 0.11977,-0.315841 0.289624,-0.398249 0.04452,-0.0216 0.101594,-0.0084 0.144862,-0.03238 0.0465,-0.0258 0.07296,-0.07784 0.114253,-0.11135 0.04412,-0.0358 0.094,-0.06386 0.140994,-0.09579 2.993138,-3.177546 0.09107,-0.12273 10.991801,-6.3965 0.235546,-0.135565 0.481172,-0.151181 0.747288,-0.164609 0.393706,-0.0032 0.787138,0.01667 1.180651,0.02667 0.585493,-0.04431 0.853342,0.251939 1.187254,0.691351 0.316567,0.480998 0.455737,1.009677 0.364386,1.578865 -0.08154,0.534046 -0.315332,1.022615 -0.558216,1.499596 -0.329356,0.505716 -0.686178,0.994131 -1.024217,1.496262 -0.303816,0.519733 -0.717061,0.918406 -1.172275,1.301023 -5.658085,-1.619463 -7.344978,4.780576 -11.362572,6.478923 -0.25738,0.108802 -0.514319,0.191954 -0.762987,0.31981 0.127107,-0.119115 -0.620587,0.361837 -0.464789,0.272501 3.456298,-1.981864 6.904771,-3.977351 10.359982,-5.961109 0.07333,-0.0421 -0.140891,0.09373 -0.214116,0.13601 -3.611754,2.085355 -7.210406,4.193725 -10.840619,6.246777 -3.470168,1.962538 6.906976,-3.983485 10.360465,-5.975228 -0.06397,-0.08178 -28.598159,16.478989 -0.972787,0.511138 0.143812,-0.08313 -0.289125,0.165375 -0.421911,0.265174 -0.430373,0.298272 -0.893355,0.540256 -1.318227,0.848082 -0.351887,0.346299 -0.775458,0.602481 -1.139673,0.935316 -3.194692,3.080772 -0.155158,0.179209 -11.002611,6.48588 -0.29613,0.172168 -0.616298,0.276996 -0.933537,0.400681 -0.568497,0.183401 -1.06322,0.526798 -1.632995,0.701727 -0.544519,0.273234 -1.126317,0.46783 -1.652021,0.775634 -0.161044,0.04097 -0.298877,0.144207 -0.457028,0.192153 -0.08672,0.02629 -0.183843,0.01564 -0.266832,0.05204 -0.08019,0.03517 -0.136057,0.110999 -0.210392,0.157265 -0.231854,0.144305 -0.256725,0.128754 -0.521614,0.196686 -0.530009,0.158686 -1.020636,0.391862 -1.570411,0.478032 -0.06461,0.02941 -0.129219,0.05882 -0.193829,0.08822 -0.06839,0.01969 -0.140089,0.03028 -0.205166,0.05908 -0.06015,0.02663 -0.107656,0.07664 -0.166744,0.10555 -0.202663,0.09916 -0.402319,0.111667 -0.622762,0.11222 -0.07748,0.0014 -0.159856,-0.02283 -0.23244,0.0043 -0.06445,0.0241 -0.09266,0.104948 -0.152162,0.139507 -0.264897,0.153847 -0.654039,0.173427 -0.950465,0.209461 -0.279943,0.118827 -0.548983,0.269807 -0.841141,0.358878 -0.658631,0.200798 0.103438,-0.102534 -0.529443,0.165489 -0.541413,0.10407 -1.006359,0.410611 -1.536684,0.548282 -0.216318,0.168982 -0.102233,0.100066 -0.340049,0.210359 0,0 9.799887,-7.756901 9.799887,-7.756901 l 0,0 c 0.220695,-0.09016 0.102032,-0.05647 0.357921,-0.09397 0.47716,-0.212724 0.987477,-0.318634 1.470961,-0.51426 0.508095,-0.148713 0.985123,-0.412734 1.52391,-0.446754 0.280559,-0.0954 0.584516,-0.266218 0.876562,-0.312192 0.08949,-0.01409 0.182154,0.01335 0.271772,1.11e-4 0.06704,-0.0099 0.127595,-0.0457 0.191392,-0.06855 0.365488,-0.19361 0.74333,-0.320547 1.153356,-0.382521 0.473336,-0.192817 0.956745,-0.351356 1.42187,-0.563387 0.171141,-0.100781 0.288399,-0.180732 0.47682,-0.248184 0.09504,-0.03402 0.198365,-0.04271 0.291916,-0.08064 0.226042,-0.09166 0.429979,-0.254733 0.661739,-0.338453 0.549062,-0.203106 1.073809,-0.465241 1.619509,-0.678108 0.539838,-0.294649 1.116096,-0.49874 1.66665,-0.770825 0.235501,-0.121306 0.457117,-0.257685 0.68471,-0.393037 0.06694,-0.03981 0.26769,-0.159391 0.200397,-0.120171 -10.488147,6.112871 -14.007823,7.764696 -10.15407,5.947134 0.40163,-0.27864 0.707682,-0.68091 1.149146,-0.908615 0.379687,-0.368911 0.765328,-0.750372 1.250696,-0.977561 0.302121,-0.175597 0.157682,-0.07278 0.431048,-0.311626 3.599673,-2.102351 7.212136,-4.182757 10.825274,-6.261882 0.07998,-0.04602 0.169337,-0.07347 0.252802,-0.112827 0.08408,-0.03965 0.330226,-0.170634 0.249726,-0.124143 -3.45028,1.99268 -6.906352,3.975315 -10.359528,5.962972 36.103356,-20.839928 -6.992005,4.031488 0.702804,-0.398144 3.612947,-2.079847 7.217024,-4.175117 10.834814,-6.246529 0.166151,-0.09513 0.365824,-0.121577 0.529091,-0.223538 0.422504,-0.163395 0.803728,-0.405436 1.205451,-0.612653 -3.449421,1.98827 -6.898843,3.97654 -10.348264,5.96481 0.49099,-0.18732 1.032306,-0.474805 1.382976,-0.869938 0.196595,-0.228208 0.391439,-0.456644 0.553382,-0.711691 0.149351,-0.235217 0.137847,-0.274297 0.304653,-0.48896 0.05093,-0.06555 0.111142,-0.123321 0.166713,-0.184981 0.275396,-0.337276 0.484104,-0.707388 0.677879,-1.093824 0.0196,-0.05629 0.02998,-0.116694 0.05881,-0.168858 0.05627,-0.101792 0.221079,-0.134076 0.08958,-0.293418 -0.07824,0.0236 -0.05968,0.06629 -0.112679,0.10968 -0.123637,0.101213 -0.317236,0.0167 -0.457919,0.05109 -0.341477,0.02244 -0.685971,0.05771 -0.992332,0.223974 -4.74324,2.823327 14.184425,-6.995265 9.800636,-5.686219 -0.0405,0.03436 -0.07771,0.07302 -0.121502,0.103071 -0.04078,0.02798 -0.09607,0.03481 -0.130785,0.07003 -0.0429,0.04352 -0.05033,0.114494 -0.09363,0.157613 -0.125767,0.125234 -0.270101,-0.0083 -0.399319,0.104857 -0.230746,0.39431 0.06801,-0.05267 -0.221558,0.212979 -0.04562,0.04186 -0.05836,0.111925 -0.103675,0.154123 -0.04147,0.03862 -0.107105,0.0435 -0.149225,0.0814 -0.374783,0.33724 0.135203,0.0124 -0.279514,0.254051 -0.125745,0.163095 -0.217035,0.359136 -0.343858,0.517613 -0.04296,0.05369 -0.110807,0.08426 -0.152428,0.138991 -0.05197,0.06834 -0.06292,0.16573 -0.124664,0.225393 -0.05054,0.04884 -0.129347,0.05505 -0.194021,0.08257 -0.136008,0.103124 -0.201977,0.166672 -0.360632,0.233726 -0.244862,0.103487 -0.190479,0.01603 -0.415156,0.180102 -0.06686,0.04883 -0.120561,0.113559 -0.182738,0.16823 -0.06236,0.05483 -0.127188,0.106798 -0.190782,0.160197 -0.13914,0.10158 -0.292325,0.183189 -0.429828,0.286974 -0.309739,0.233786 -0.566491,0.543658 -0.919079,0.722762 -1.018738,0.549824 0.473882,-0.237996 -0.500605,0.221111 -0.342598,0.161407 -0.562065,0.495509 -0.872378,0.703964 -0.242901,0.185647 -0.440066,0.415087 -0.680679,0.601648 -0.256681,0.199019 -0.547129,0.360956 -0.805683,0.55842 -3.831155,2.889405 -8.137683,5.187356 -12.521146,7.144828 -0.445077,0.186094 -0.898493,0.349296 -1.320864,0.584981 -0.14466,0.08072 -0.568488,0.340384 -0.425038,0.257532 9.998236,-5.774638 13.34778,-7.931484 9.748678,-5.621537 -4.067939,2.348833 -8.127146,4.957277 -12.383616,7.055265 -0.692794,0.342265 -1.327586,0.802121 -2.066344,1.052747 -0.643907,0.252499 -1.252281,0.587043 -1.86606,0.904371 -0.588884,0.340903 -1.194676,0.652058 -1.855614,0.829915 -0.666956,0.218827 -1.302418,0.498094 -1.94911,0.769622 -0.284961,0.06853 -0.571345,0.151132 -0.859683,0.20408 -0.102598,0.01884 -0.206574,0.02919 -0.309861,0.04379 -0.09611,0.01028 -0.193112,0.01424 -0.288335,0.03085 -0.09417,0.01642 -0.185727,0.04534 -0.27859,0.06801 -0.583844,0.209309 -1.135936,0.492183 -1.698051,0.751384 -0.610894,0.348238 -1.246229,0.564181 -1.954718,0.603356 -0.760656,0.06434 -1.520602,0.114793 -2.283712,0.144313 -0.918586,0.05091 -1.83739,0.0529 -2.756833,0.08006 -0.40508,0.02279 -1.195391,0.133327 -1.548266,-0.109924 -0.0849,-0.05853 -0.15028,-0.141253 -0.225421,-0.21188 -0.243607,-0.357626 -0.345062,-0.444404 -0.388237,-0.871781 -0.02648,-0.262158 -0.06849,-0.44455 0.08534,-0.674689 0.28536,-0.207951 -0.02654,0.04763 0.235662,-0.287399 0.04345,-0.05552 0.111233,-0.08823 0.156536,-0.142262 0.05871,-0.07002 0.0746,-0.180817 0.153299,-0.227254 9.611089,-5.671243 7.100142,-4.450402 11.066838,-6.367416 3.589038,-2.228669 0.527808,-0.32425 -10.029545,5.78146 -0.09827,0.05683 0.200249,-0.107098 0.298605,-0.163792 3.967757,-2.287047 7.487008,-4.687949 11.492185,-6.563966 0.576362,-0.309143 1.161312,-0.597222 1.767905,-0.841971 0.632201,-0.324327 1.33867,-0.495109 2.015067,-0.702751 1.323513,-0.349046 2.649005,-0.689385 3.978541,-1.014977 1.768363,-0.420607 3.520654,-0.910396 5.313439,-1.220901 0.357502,-0.106479 0.722722,-0.188293 1.074978,-0.311017 0.109443,-0.03813 0.418394,-0.198531 0.317891,-0.140818 -0.561016,0.322161 -14.305315,3.522895 -9.623987,7.535089 -0.507299,0.06803 -0.988584,0.26581 -1.481757,0.396842 -0.29119,0.09824 -0.592294,0.178791 -0.864606,0.324748 -0.135692,0.07273 -0.297946,0.193518 -0.441062,0.264339 -0.06918,0.03423 -0.142139,0.06021 -0.213208,0.09032 -0.26232,0.154787 -0.124781,0.08194 -0.41357,0.216738 -3.69281,2.058117 -6.999596,6.934732 9.850487,-5.692995 -0.746185,0.459025 0.369151,-0.21347 -0.417699,0.214845 -0.298396,0.16243 -0.567324,0.367371 -0.839621,0.569503 -0.06307,0.06057 -0.118945,0.129651 -0.189201,0.181714 -0.300498,0.222682 -0.133982,0.003 -0.417138,0.261454 -0.06651,0.0607 -0.109613,0.144582 -0.177859,0.203326 -0.06613,0.05692 -0.147407,0.0934 -0.221111,0.140098 -0.06888,0.06585 -0.137753,0.131705 -0.206629,0.197558 -0.467052,0.430887 -0.966901,0.816926 -1.459794,1.2158 -0.17481,0.146913 -0.358,0.283926 -0.528827,0.435453 -0.0873,0.07744 -0.159681,0.171408 -0.25104,0.244014 -0.257598,0.204724 -0.576818,0.313208 -0.845755,0.500015 -0.177051,0.118805 -0.374663,0.207784 -0.541317,0.34078 -0.08567,0.06836 -0.143912,0.166324 -0.226672,0.238178 -0.220317,0.191287 -0.484717,0.339288 -0.689237,0.552412 -3.096814,3.527818 -0.784796,0.687579 -11.218876,6.704037 -0.07908,0.0456 -0.319022,0.177575 -0.240062,0.131771 3.448451,-2.000421 13.745216,-8.08289 10.348603,-5.995661 -3.551954,2.182687 -7.20985,4.188084 -10.814776,6.282125 -0.529971,0.253368 -0.985996,0.521349 -1.592191,0.571728 -0.601012,0.06708 -1.194784,0.223144 -1.805246,0.162661 -0.506258,-4.1e-5 -1.012679,0.01384 -1.518835,0.02077 -0.391298,0.0052 -0.782426,0.01668 -1.173862,0.0062 -0.429777,-0.0049 -0.859543,-0.0143 -1.289365,-0.01228 -0.446507,0.0091 -0.895548,0.01002 -1.339902,-0.03867 -0.413608,-0.05661 -0.805155,-0.156369 -1.167643,-0.372032 -0.453666,-0.148147 -0.7969604,-0.556833 -1.0385773,-0.949671 -0.194038,-0.424917 -0.372055,-0.88458 -0.3739841,-1.356575 0.00554,-0.35357 -0.029345,-0.79028 0.2504897,-1.050106 0.060641,-0.24815 0.087407,-0.301789 0.2211223,-0.508059 0.031907,-0.04922 0.04628,-0.10927 0.082409,-0.155479 0.031663,-0.0405 0.089873,-0.0566 0.1173687,-0.10004 0.035574,-0.0562 0.043539,-0.125696 0.065309,-0.188544 0.1836656,-0.305813 -0.010047,0.04299 0.1389266,-0.324119 0.01951,-0.04808 0.05677,-0.08779 0.07516,-0.136303 0.06516,-0.17188 0.05646,-0.337162 0.246526,-0.427115 0.04419,-0.118864 0.153703,-0.351164 0.232003,-0.451985 0.02914,-0.03752 0.08726,-0.04738 0.112315,-0.08775 0.0627,-0.101048 0.03566,-0.245467 0.141489,-0.327509 0.04602,-0.12182 0.06408,-0.231332 0.178644,-0.311466 0.19034,-0.133134 0.146249,0.04374 0.282858,-0.192465 0.04066,-0.0703 0.05153,-0.154304 0.08455,-0.228504 0.03093,-0.06951 0.07126,-0.134453 0.106886,-0.20168 0.130937,-0.152744 0.192123,-0.265682 0.294097,-0.431669 0.02452,-0.0399 0.07318,-0.06478 0.08869,-0.108974 0.05209,-0.148389 0.0019,-0.323557 0.106942,-0.459522 0.155999,-0.218825 0.06477,-0.139156 0.292005,-0.271546 3.60446,-2.100036 7.209407,-4.199236 10.814286,-6.298553 0.06347,-0.03696 0.1237,-0.08034 0.190768,-0.110288 0.09207,-0.04112 0.375219,-0.121222 0.471648,-0.149685 0.499996,-0.168747 0.921923,-0.497281 1.395263,-0.725369 3.661851,-2.249742 -0.348441,0.217034 -10.106728,5.843106 -0.07684,0.0443 0.141831,-0.107308 0.218685,-0.15158 5.26874,-3.03506 7.148914,-5.054592 11.361762,-6.392953 0.07592,-0.03558 0.148001,-0.08089 0.227756,-0.106756 0.15616,-0.05065 0.326531,-0.04573 0.483462,-0.09394 0.211234,-0.06489 0.37653,-0.181917 0.613528,-0.130104 0.470775,-0.02856 -0.089,-0.0067 0.426624,0.0157 0.261214,0.01137 0.524858,-0.05039 0.784839,-0.06241 0.521116,-0.06238 0.987509,-0.127109 1.5172,-0.07088 0.590886,-0.01213 1.176935,-0.07476 1.76341,-0.144845 0.611102,-0.06674 1.223396,-0.01241 1.837015,-0.03903 0.719936,-0.03576 1.433498,-0.116634 2.146486,-0.223624 0.624416,-0.04626 1.225837,-0.19817 1.844393,-0.281119 0.602532,-0.150891 1.192891,-0.345127 1.783256,-0.537283 0.602447,-0.148976 1.197439,-0.318192 1.802443,-0.455055 0.704707,-0.174784 1.381711,-0.415377 2.04493,-0.710498 0.211803,-0.08178 0.417453,-0.179607 0.631734,-0.254653 0.424469,-0.148657 0.872711,-0.222784 1.308848,-0.326678 0.255339,-0.08745 0.515445,-0.154413 0.771548,-0.237868 0.537708,-0.175221 -0.09004,0.0033 0.475803,-0.191845 0.08541,-0.02945 0.174301,-0.04762 0.261452,-0.07143 0.05995,-0.02289 0.490936,-0.188611 0.539114,-0.201733 0.423537,-0.115366 0.87607,-0.09968 1.296113,-0.234144 0.607321,-0.129475 1.210856,-0.271255 1.818188,-0.399113 0.638628,-0.148209 1.298177,-0.189702 1.92949,-0.373192 0.627841,-0.110625 1.070113,-0.438753 1.672181,-0.61488 0.63093,-0.204938 1.263368,-0.405263 1.897906,-0.598645 0.565795,-0.182594 1.060391,-0.47242 1.569471,-0.773014 -3.442864,1.985027 -6.890059,3.962562 -10.328594,5.95508 -0.08203,0.04753 0.175024,-0.07382 0.258072,-0.119545 1.013105,-0.557824 -0.535903,0.257969 0.458361,-0.320932 0.151327,-0.08811 27.974211,-16.188399 0.456955,-0.259155 0.213476,-0.03964 0.213219,-0.0188 0.387787,-0.120741 0.0406,-0.02371 0.07015,-0.06668 0.114442,-0.08245 0.253071,-0.09011 0.412175,0.608351 0.562691,0.655879 0.195618,0.283788 0.263051,0.290247 0.01886,0.296832 -0.197622,0.0053 -0.394315,0.04508 -0.588526,0.07743 -0.252783,0.06187 -0.499258,0.17586 -0.759969,0.202801 -0.07285,0.0075 -0.146911,-0.003 -0.21965,0.0055 -0.06261,0.0074 -0.122939,0.02798 -0.184408,0.04197 -0.511183,0.115505 -1.02514,0.144321 -1.54784,0.1714 -0.525618,0.01042 -1.042537,0.06964 -1.555181,0.188053 -0.428079,0.05572 -0.852423,-0.03267 -1.279692,0.05212 -0.355569,0.05331 -0.693532,0.159016 -1.022982,0.30379 -0.509726,0.169588 -1.040939,0.282832 -1.534398,0.50238 -0.218402,0.07948 -0.444921,0.135627 -0.662546,0.217208 -0.391494,0.146758 -0.740482,0.404065 -1.15394,0.499781 -0.520803,0.238712 -1.092151,0.335296 -1.608123,0.589536 -0.526836,0.106802 -1.027757,0.288603 -1.539753,0.450556 -0.570524,0.214968 -1.082331,0.563214 -1.66387,0.755069 -0.214935,0.05152 -0.437418,0.07127 -0.649476,0.133583 -0.299069,0.08788 -0.700483,0.300518 -0.954998,0.479996 -0.461079,0.28663 -0.955017,0.51603 -1.429272,0.780483 3.451914,-1.99501 13.775287,-8.035024 10.355741,-5.98503 -3.575512,2.143494 -7.215796,4.177043 -10.823693,6.265565 -0.08316,0.0404 -0.167809,0.07787 -0.249484,0.121194 -0.08136,0.04315 -0.159533,0.09205 -0.2393,0.138078 3.455816,-2.011128 6.911633,-4.022256 10.367449,-6.033384 0.06645,-0.03867 -0.132582,0.07789 -0.198874,0.116833 -0.120426,0.09072 -0.25746,0.158508 -0.37494,0.253014 -0.01475,0.01186 -0.308671,0.326497 -0.328928,0.338358 -10.61209,6.214215 -6.899246,4.917801 -11.050954,6.350747 -0.397278,0.159818 -0.720214,0.476614 -1.138327,0.601091 -0.358437,0.149962 -0.08017,0.02043 -0.407915,0.208311 -0.06979,0.04001 -0.282327,0.154296 -0.212737,0.113943 17.031224,-9.875876 13.657715,-8.022026 10.108223,-5.832449 -3.612552,2.097968 -7.225104,4.195935 -10.837656,6.293903 -0.04709,0.01477 -0.336951,0.103498 -0.387943,0.127837 -0.256818,0.122581 -0.03863,0.07781 -0.323339,0.18126 -0.07003,0.02545 -0.144258,0.03737 -0.216387,0.05606 -0.434739,0.225437 -0.882638,0.433113 -1.363324,0.536592 -0.491492,0.127813 -0.987503,0.236406 -1.422017,0.515133 -0.0874,0.03566 -0.39451,0.164778 -0.493786,0.191117 -0.364951,0.09682 -0.750739,0.07862 -1.117097,0.168597 -0.718,0.127506 0.187552,-0.02108 -0.535771,0.05846 -0.327552,0.03602 -0.628393,0.179777 -0.952663,0.229911 -0.453449,0.04773 -0.86999,0.239834 -1.308622,0.355088 -0.247578,0.07266 -0.118604,0.04581 -0.387567,0.07741 -0.243967,0.06004 -0.455468,0.243406 -0.717701,0.246533 -0.178655,0.08453 -0.362509,0.189337 -0.555313,0.23816 -0.114942,0.02911 -0.351876,0.04354 -0.467813,0.08123 -0.06424,0.02088 -0.121114,0.05987 -0.181671,0.0898 -0.211462,0.149746 -0.429051,0.246102 -0.665305,0.345207 -0.05557,0.02331 -0.118742,0.02621 -0.173038,0.05235 -0.04594,0.02212 -0.08227,0.06025 -0.123402,0.09037 -0.586065,0.31067 0.359673,-0.173124 -0.322258,0.110335 -0.117238,0.04873 -0.206832,0.149011 -0.319958,0.20665 -0.06298,0.03209 -0.132818,0.04935 -0.195747,0.08153 -0.05825,0.0298 -0.11107,0.0692 -0.166606,0.103803 -0.378004,0.158702 -0.726453,0.378613 -1.103785,0.540012 -0.133746,0.03898 -0.260696,0.101401 -0.396734,0.13143 -0.259825,0.05736 -0.537615,0.01281 -0.783475,0.144014 -0.37699,0.07056 5.32e-4,0.01421 -0.415095,0.02869 -0.301206,0.0105 -0.571017,0.06349 -0.845886,-0.116158 C 10.178703,44.210288 9.801592,43.880357 9.53093,43.429839 9.3588093,43.10524 9.2026349,42.772473 9.0378471,42.444427 8.7820191,42.006234 8.5059702,41.530026 8.632455,41.004097 c 3.629907,-2.073294 7.259814,-4.146588 10.889721,-6.219882 0.170993,0.0031 0.419917,-0.02232 0.585315,-0.0662 0.07906,-0.02097 0.238164,-0.123202 0.305515,-0.163609 3.199308,-2.23826 -13.6336107,7.613724 -10.165893,5.819199 3.70942,-1.919604 7.239375,-4.167772 10.864455,-6.242255 0.0617,-0.03531 0.133628,-0.05053 0.194913,-0.08656 0.05554,-0.03265 0.102056,-0.07868 0.153084,-0.118016 0.257629,-0.04933 0.47896,-0.178828 0.724108,-0.268689 0.06283,-0.02303 0.131631,-0.02698 0.194386,-0.05023 0.05387,-0.01996 0.102254,-0.05241 0.153381,-0.07862 0.05812,-0.01801 0.120653,-0.02544 0.174371,-0.05402 0.14582,-0.07759 0.22739,-0.229562 0.392232,-0.287759 0.06299,-0.02224 0.133156,-0.0177 0.196716,-0.03826 0.06491,-0.02099 0.123961,-0.05699 0.185942,-0.08549 0.221742,-0.05279 0.403465,-0.09202 0.594811,-0.219283 0.0591,-0.0393 0.235948,-0.157501 0.17441,-0.122138 -11.582028,6.655655 -13.916961,7.948482 -10.223007,5.900775 0.320199,-0.09418 0.277239,-0.159503 0.524331,-0.343273 0.331347,-0.246433 -0.01708,0.02539 0.33279,-0.164261 0.05358,-0.02904 0.09674,-0.07414 0.145113,-0.111216 0.258475,-0.140291 0.215345,-0.246883 0.403753,-0.394395 0.0479,-0.0375 0.116442,-0.0402 0.166466,-0.07482 0.0997,-0.069 0.154961,-0.191749 0.270418,-0.243254 3.801152,-1.918146 5.970171,-3.008718 10.9756,-6.385184 3.349803,-2.259645 -6.987145,4.060622 -10.486088,6.081655 -0.125293,0.07237 0.246367,-0.151881 0.371569,-0.224407 3.607542,-2.089736 7.210655,-4.187109 10.815983,-6.280664 -3.464511,2.010864 -6.928782,4.022144 -10.393534,6.032593 -0.06685,0.03879 0.135082,-0.07538 0.199812,-0.117609 0.123642,-0.08066 0.256123,-0.147937 0.375629,-0.234604 0.06004,-0.04355 0.09678,-0.116327 0.160766,-0.153842 3.605179,-2.113735 7.227629,-4.197875 10.841444,-6.296812 0.407555,-0.04974 0.73695,-0.26678 1.096458,-0.452819 3.859894,-1.784669 -0.02853,0.0064 -10.310673,5.942945 -0.06091,0.03517 0.133783,-0.04596 0.195024,-0.08055 0.115551,-0.06527 0.223396,-0.143539 0.338542,-0.209522 3.626325,-2.078016 7.248993,-4.162408 10.87349,-6.243612 0.08836,-0.05693 0.229258,-0.154243 0.328098,-0.19061 0.244868,-0.0901 0.510863,-0.104111 0.728734,-0.267992 0.06759,-0.01849 0.140277,-0.02375 0.202757,-0.05547 0.06425,-0.03261 0.110933,-0.09223 0.169865,-0.133685 0.224806,-0.158151 0.50183,-0.257664 0.76378,-0.328674 0.39515,-0.104402 0.751634,-0.335943 1.164783,-0.39332 0.437846,-0.182248 0.901538,-0.277856 1.340708,-0.458078 0.210812,-0.07379 0.533501,-0.181567 0.747756,-0.226091 0.227666,-0.04731 0.472654,-0.007 0.693238,-0.09736 0.417305,-0.117732 0.834818,-0.223075 1.269275,-0.253485 0.541331,0.0023 1.057941,-0.178507 1.557859,-0.373763 0.511091,-0.121308 1.003734,-0.354089 1.541684,-0.328686 0.596525,-0.0053 1.176909,-0.16129 1.772045,-0.131609 0.380824,-0.0059 0.761905,-0.01616 1.14231,-0.03506 0.320722,-0.02798 0.637209,-0.07773 0.941357,-0.188048 0.118977,-0.02764 0.18749,-0.05299 0.313193,-0.04202 0.06551,0.0057 0.127697,0.03628 0.193402,0.03886 0.167609,0.0066 0.339651,-0.07213 0.499497,-0.108016 0.371291,-0.142991 0.707445,-0.387073 1.112885,-0.420001 0.426034,-0.06268 0.839553,-0.211924 1.242677,-0.359688 0.296629,-0.0039 0.488998,-0.130644 0.7685,-0.208843 0.07714,-0.02158 0.158209,-0.02838 0.234294,-0.05343 0.07036,-0.02317 0.135297,-0.06035 0.202946,-0.09053 0.155753,-0.07945 0.248271,-0.143935 0.425537,-0.166624 0.08876,-0.01136 0.17983,0.011 0.268445,-0.0014 0.206473,-0.02898 0.396976,-0.162751 0.590694,-0.228884 0.210648,-0.04255 0.363842,-0.124491 0.562305,-0.201467 0.250795,-0.09727 0.186997,-0.06445 0.465266,-0.117388 0.08304,-0.0158 0.165596,-0.03407 0.248395,-0.0511 0.560434,-0.03762 1.104883,-0.110485 1.626465,-0.336767 0.451339,-0.322801 -0.118847,0.07319 0.409904,-0.251714 0.06406,-0.03936 0.248644,-0.168675 0.183511,-0.131126 -3.4739,2.002712 -6.955137,3.992989 -10.410723,6.02714 -0.06907,0.04066 0.161962,-0.01131 0.237354,-0.03853 0.07378,-0.02663 0.134875,-0.08012 0.202313,-0.120178 0.304841,-0.298194 0.603003,-0.613849 0.962883,-0.846277 0.311214,-0.146032 0.258751,-0.05254 0.396183,-0.363237 0.07983,-0.180483 0.05828,0.02972 0.05304,-0.219635 -0.0091,-0.173806 0.0045,-0.325273 -0.198748,-0.356627 -0.212403,0.01759 0.159736,-0.0055 -0.199874,-0.03092 -0.0332,-0.0023 -0.06455,0.01852 -0.09779,0.02016 -0.05546,0.0027 -0.111198,-0.01282 -0.166423,-0.0071 -0.525359,0.05479 0.321491,0.0396 -0.320949,0.03868 -0.361701,-3.99e-4 -0.723464,-0.0018 -1.085097,0.0064 -0.353128,0.01136 -0.706842,0.03055 -1.054546,0.09778 -0.253355,0.04735 -0.512874,0.112741 -0.772167,0.111644 -0.08121,-3.44e-4 -0.161854,-0.01691 -0.243068,-0.01671 -0.07136,1.75e-4 -0.142232,0.01189 -0.213347,0.01783 -0.438828,0.05588 -0.842681,0.187764 -1.246132,0.365495 -0.421116,0.06883 -0.835117,0.219612 -1.231572,0.373807 -0.436757,0.17336 -0.807329,0.485315 -1.277827,0.584811 -0.0737,0.03692 -0.143121,0.08405 -0.221106,0.110765 -0.351289,0.120325 -0.754788,0.102126 -1.084443,0.297238 -0.427557,0.191763 -0.885741,0.259391 -1.329919,0.401138 -0.468853,0.15922 -0.941755,0.345292 -1.432399,0.39871 -0.347379,0.09518 -0.708515,0.06649 -1.0198,0.277718 -0.104754,0.05269 -0.224933,0.118026 -0.33696,0.153584 -0.06912,0.02194 -0.145074,0.02145 -0.2117,0.05007 -0.203121,0.08725 -0.368097,0.274472 -0.600834,0.30429 -0.279708,0.145096 -0.133524,0.07647 -0.439414,0.204022 -0.300529,0.150729 -0.563844,0.369768 -0.874185,0.501895 -3.364673,2.067743 13.810116,-7.65582 10.26336,-5.918838 -3.533178,1.730333 -7.358983,5.00637 -11.474085,6.469497 -0.213873,0.08468 -0.447699,0.09747 -0.657202,0.185944 -0.136554,0.05766 -0.229839,0.156903 -0.338033,0.252908 3.491629,-2.018911 6.983258,-4.037822 10.474887,-6.056733 -0.744182,0.48757 0.390195,-0.24132 -0.393825,0.213907 -0.143271,0.08319 -0.275212,0.184939 -0.418456,0.268176 -10.909185,6.339168 -6.959188,4.689336 -11.059626,6.388523 -0.619999,0.258471 -1.225704,0.551268 -1.820652,0.863362 -0.622142,0.320654 -1.240671,0.64803 -1.857676,0.978442 -3.505846,1.733258 13.602741,-7.723408 10.161661,-5.864886 -4.527336,2.445208 -7.436491,4.720168 -11.499942,6.510009 -0.430303,0.128066 -0.853277,0.279399 -1.284429,0.403658 -0.418433,0.13992 -0.780753,0.41397 -1.230866,0.469157 -0.12857,0.0688 -0.245917,0.1588 -0.378846,0.218749 -0.246024,0.110953 -0.518699,0.149025 -0.767067,0.253881 -0.199912,0.03791 -0.352881,0.12657 -0.546645,0.177665 -0.187338,0.0494 -0.373083,0.08106 -0.552085,0.163865 -0.1999,0.02582 -0.368387,0.102729 -0.564925,0.135324 -0.196122,0.03252 -0.390046,0.04373 -0.578656,0.119863 -0.493003,0.08463 -0.996613,0.05702 -1.494349,0.08103 -0.477462,0.05849 -0.945272,0.150306 -1.404653,0.29544 -0.388712,0.0035 -0.736769,0.208098 -1.13,0.171752 -0.234973,0.04845 -0.485753,0.125557 -0.728163,0.108867 -0.07634,-0.0053 -0.150279,-0.03057 -0.226487,-0.03754 -0.06032,-0.0055 -0.121148,1.44e-4 -0.181722,2.15e-4 -0.363551,6.2e-4 -0.7271,0.0018 -1.090647,0.0035 -0.3697595,0.0011 -0.7400435,0.0049 -1.1091923,-0.02007 C 8.1110129,37.617816 7.6972401,37.543155 7.3366249,37.309966 6.94489,37.030611 6.5934371,36.699037 6.4796511,36.21123 6.3807279,35.868433 6.3815998,35.507995 6.2867078,35.161963 c -0.065109,-0.45139 -0.01254,-0.91359 0.1517489,-1.341203 0.2011571,-0.353833 0.2503088,-0.785031 0.5281544,-1.092251 0.3306001,-0.432236 -0.091677,0.0796 0.2827317,-0.257972 0.2114172,-0.190615 0.2467792,-0.490377 0.4207599,-0.70476 0.087531,-0.168517 0.2077492,-0.377903 0.3631371,-0.497066 0.047748,-0.03662 0.1252008,-0.02818 0.1649381,-0.07336 0.1002848,-0.114032 0.069858,-0.310965 0.2117218,-0.403382 0.06676,-0.113309 0.1428473,-0.280042 0.2665161,-0.351898 3.6103252,-2.097736 7.2361692,-4.16866 10.8585612,-6.245489 0.05428,-0.03112 0.110749,-0.06024 0.170759,-0.07796 0.07102,-0.02097 0.146015,-0.02475 0.219023,-0.03713 0.07423,-0.02512 0.148466,-0.05025 0.222699,-0.07537 0.13513,-0.08132 0.533688,-0.336072 0.397107,-0.257215 -3.460067,1.997721 -6.906753,4.018597 -10.370138,6.010561 -0.07512,0.0432 0.127748,-0.119288 0.202706,-0.162769 13.406206,-7.776498 7.217525,-4.075019 11.063618,-6.376398 0.385203,-0.227638 0.853939,-0.230185 1.208382,-0.52144 0.552955,-0.127467 -0.140583,0.0538 0.386835,-0.154271 0.06525,-0.02574 0.140271,-0.01977 0.205353,-0.04593 0.06597,-0.02651 0.117697,-0.08128 0.182714,-0.110048 0.358939,-0.158835 0.05007,0.06968 0.35938,-0.198195 -11.051917,6.368781 -17.1748238,9.894995 0.35253,-0.196408 0.05695,-0.03279 0.109896,-0.07346 0.170325,-0.09928 0.206972,-0.08846 0.431644,-0.07014 0.58532,-0.263588 0.187163,-0.116149 0.389382,-0.166645 0.579515,-0.273316 0.05873,-0.03295 0.2231,-0.150552 0.164708,-0.117001 -0.133358,0.07663 -28.3866765,16.36414 0.409589,-0.212468 0.363993,-0.166666 0.07315,-0.02064 0.407876,-0.224066 0.07049,-0.04284 0.286446,-0.163711 0.215142,-0.122249 -3.477243,2.021983 -6.948055,4.055082 -10.432969,6.063816 -0.06354,0.03662 0.101823,-0.108374 0.16515,-0.145358 3.605209,-2.105512 7.224575,-4.186687 10.836862,-6.28003 -23.3667567,13.53476 -4.396349,2.541757 0.367,-0.197849 0.213456,-0.122768 0.452281,-0.197981 0.656845,-0.337769 0.10645,-0.02986 0.204501,-0.08601 0.311431,-0.114102 0.05729,-0.01505 0.12075,0.0018 0.176844,-0.01726 0.158873,-0.05384 0.273899,-0.233682 0.461118,-0.228706 0.322213,-0.221752 0.675296,-0.179501 1.007505,-0.383278 0.119068,-0.06062 0.247576,-0.133778 0.37829,-0.16717 0.312398,-0.0798 0.649072,-0.07051 0.962338,-0.149854 0.454299,-0.161008 0.838846,-0.450003 1.283678,-0.631794 0.433537,-0.148436 0.847978,-0.342957 1.293876,-0.452442 0.09071,-0.0012 0.182572,0.01072 0.272138,-0.0037 0.337765,-0.05444 0.601237,-0.384683 0.962718,-0.373643 0.634308,-0.204046 -0.268262,0.07611 0.429652,-0.104349 0.274505,-0.07098 0.535208,-0.197945 0.821355,-0.228961 0.06689,-0.0041 0.135307,0.0024 0.20068,-0.01239 0.270607,-0.06114 0.449391,-0.333285 0.716655,-0.403775 0.373391,-0.0478 0.443751,-0.05401 0.767893,-0.262632 0.06821,-0.0439 0.272122,-0.176442 0.201849,-0.135924 -3.454352,1.991723 -6.903061,3.99322 -10.354592,5.98983 0.144993,-0.08396 0.281423,-0.18225 0.42711,-0.264999 0.266376,-0.1513 0.533625,-0.261944 0.738437,-0.505198 0.241016,-0.165423 0.114791,-0.09238 0.378725,-0.219049 0.06471,-0.0416 0.116356,-0.100872 0.178082,-0.146779 0.194006,-0.144286 0.424628,-0.209331 0.597917,-0.382866 3.571396,-2.315916 7.526578,-4.020737 11.016473,-6.457737 3.273908,-2.286176 -6.905234,4.012248 -10.361919,6.01135 -0.08189,0.04736 0.155738,-0.107709 0.237144,-0.155895 0.460148,-0.272368 0.05449,0.01628 0.478025,-0.304865 0.328173,-0.158674 0.620514,-0.370535 0.932484,-0.558243 0.07549,-0.04542 0.158799,-0.07747 0.232449,-0.125826 0.07123,-0.04677 0.133721,-0.10566 0.200582,-0.15849 0.355471,-0.412321 -0.03045,-0.0059 0.37573,-0.320241 0.253249,-0.195987 0.445394,-0.471589 0.710429,-0.655777 0.427248,-0.319706 -0.101748,0.100623 0.299597,-0.305891 0.04845,-0.04907 0.119493,-0.07234 0.166495,-0.122804 0.04971,-0.05337 0.06932,-0.130199 0.118941,-0.183649 0.05184,-0.05584 0.237896,-0.153695 0.302246,-0.189845 0.08636,-0.112328 0.154304,-0.239385 0.250497,-0.343417 0.04975,-0.05381 0.121587,-0.08422 0.170508,-0.138781 0.05793,-0.06461 0.09143,-0.148185 0.146738,-0.215059 0.100884,-0.121972 0.236377,-0.212277 0.33717,-0.334376 0.279119,-0.279899 0.593202,-0.550086 0.745689,-0.923617 0.07145,-0.08088 0.115292,-0.185542 0.194555,-0.258782 0.08191,-0.07569 0.155868,-0.02633 0.223927,-0.123944 0.02758,-0.03955 0.02178,-0.0946 0.0417,-0.138515 0.01347,-0.02971 0.03809,-0.05296 0.05714,-0.07944 -2.05e-4,-0.06668 0.0034,-0.443769 0.02589,-0.176658 -0.112889,0.07984 0.01099,0.0088 -0.182733,0.03496 -0.03597,0.0049 -0.06695,0.03159 -0.103072,0.03512 -0.186947,0.01824 -0.380566,-0.03412 -0.567337,-0.03203 -0.429876,-0.04339 -0.854748,-0.118242 -1.282656,-0.176499 -0.417956,-0.0216 -0.838583,0.06188 -1.259783,0.02573 -0.422208,-0.0042 -0.845362,-0.01366 -1.266754,0.01866 -0.457593,0.01806 -0.915501,0.0464 -1.368242,0.118619 -0.527055,0.04436 -1.052636,0.01796 -1.579917,-0.0175 -0.487225,-0.02617 -0.978743,-0.103633 -1.465303,-0.03458 -0.542206,-0.0028 -1.031741,-0.108702 -1.56761,0.07521 -0.497602,0.09245 -0.996619,0.158495 -1.487221,0.284725 -0.531578,0.076 -1.070671,0.09863 -1.606206,0.122267 -0.461131,0.05993 -0.917448,0.128048 -1.346806,0.318883 -0.469503,0.171816 -0.995824,0.156257 -1.428891,0.432543 -0.289275,0.155681 -0.603075,0.237546 -0.900828,0.374162 -0.07341,0.03368 -0.136666,0.08713 -0.210228,0.120478 -0.07188,0.03258 -0.149388,0.05094 -0.224082,0.07641 -0.275181,0.133946 -0.131761,0.07257 -0.431015,0.182367 -0.06799,0.03222 -0.124207,0.08688 -0.193503,0.116172 -0.194675,0.08229 -0.42679,0.124955 -0.63515,0.142958 -0.427586,0.04758 -0.771887,0.308591 -1.177687,0.437368 -0.359876,0.225491 -0.786805,0.32461 -1.123872,0.595973 -0.07466,0.03545 -0.149324,0.07089 -0.223987,0.106337 -0.07047,0.04111 -0.13838,0.08697 -0.211419,0.123334 -0.294191,0.146452 -0.616285,0.233686 -0.897708,0.404641 -3.850265,1.834383 0.198305,-0.08763 10.219388,-5.892579 0.06583,-0.03813 -0.151016,0.03479 -0.215498,0.07515 -0.06481,0.04058 -0.09664,0.123239 -0.162758,0.161653 -10.68311,6.207072 -6.880457,5.014573 -11.076573,6.311999 -0.268951,0.0197 -0.296473,0.09731 -0.533877,0.157111 -0.190652,0.04803 -0.388593,0.07664 -0.581101,0.118373 -0.150432,0.09005 -0.134569,0.07377 -0.272936,0.18415 -0.04473,0.03568 -0.181003,0.138967 -0.131369,0.110496 3.519805,-2.019042 14.041261,-8.14176 10.544216,-6.083548 -1.021328,0.601111 -27.4582144,15.837016 -0.297248,0.180699 -3.625517,2.075336 -7.256551,4.141063 -10.87655,6.226008 -0.05286,0.03045 -0.08421,0.09255 -0.13936,0.118626 -0.05393,0.0255 -0.120744,0.009 -0.176328,0.03066 -0.05341,0.02082 -0.09304,0.06772 -0.143893,0.09416 -0.29465,0.15323 -0.0537,-0.02822 -0.289593,0.170458 -0.355431,0.211409 0.09241,-0.03403 -0.332224,0.124942 -0.06043,0.02262 -0.110006,0.06829 -0.16905,0.09432 -0.1821819,0.08032 -0.3682304,0.153236 -0.5556908,0.220657 -0.1029468,0.06215 -0.2218167,0.09567 -0.323058,0.160564 -0.045489,0.02916 -0.1616148,0.141402 -0.1147909,0.114442 C 29.381217,9.1571528 22.925361,13.084682 19.302097,14.908683 c -0.225798,0.231657 -0.0074,0.05669 -0.301304,0.16187 -0.262958,0.09412 -0.07975,0.07519 -0.309184,0.248567 -0.701354,0.529984 0.329573,-0.37605 -0.340885,0.230464 -0.102986,0.08057 -0.225433,0.135551 -0.322977,0.22263 -0.105328,0.09403 -0.139676,0.261905 -0.261563,0.333169 -9.7751505,5.715287 -7.141894,4.38466 -11.0331827,6.344719 -0.3888333,0.08314 -0.7865978,0.13567 -1.1408317,0.323363 -0.3453406,0.128059 -0.7415104,0.10146 -1.0261095,0.361275 -3.081021,2.552784 13.9070829,-7.920771 10.4155599,-5.966632 -3.644683,2.039859 -7.2405171,4.165797 -10.8598795,6.250252 -0.049276,0.02838 -0.093709,0.0659 -0.1460023,0.08823 -0.0598,0.02554 -0.12874,0.02613 -0.1874065,0.05417 -0.061756,0.02952 -0.1128173,0.07755 -0.1692259,0.11633 -0.3769896,0.227824 -0.8279487,0.316218 -1.1808803,0.579778 0,0 9.8429925,-7.873463 9.8429925,-7.873463 z"
       inkscape:connector-curvature="0" />
    <path
       style="fill:#ff0000;fill-opacity:0;stroke:none"
       d="M 29.745455,62.206833 C 22.189971,61.467802 16.089891,58.686155 10.953076,53.637473 5.1285849,47.912913 1.9272727,40.322542 1.9272727,32.237124 1.9272727,20.62776 8.307656,10.403188 18.836364,5.1402842 25.048122,2.0352606 32.583042,1.2702073 39.511989,3.0409978 c 8.893458,2.2728495 16.579386,8.8723512 20.13198,17.2862752 1.553035,3.678189 2.244058,6.787582 2.404206,10.818182 0.52321,13.168189 -7.866893,25.31245 -20.39363,29.518772 -3.975245,1.334838 -8.302605,1.895369 -11.90909,1.542606 z"
       id="path5295"
       inkscape:connector-curvature="0" />
  </g>
</svg>
